<svg width="1062" height="68" viewBox="0 0 1062 68" fill="none" xmlns="http://www.w3.org/2000/svg">
<path opacity="0.8" d="M0.592 14.416C0.592 13.328 0.842667 12.352 1.344 11.488C1.856 10.624 2.544 9.952 3.408 9.472C4.28267 8.98133 5.23733 8.736 6.272 8.736C7.456 8.736 8.50667 9.02933 9.424 9.616C10.352 10.192 11.024 11.0133 11.44 12.08H9.248C8.96 11.4933 8.56 11.056 8.048 10.768C7.536 10.48 6.944 10.336 6.272 10.336C5.536 10.336 4.88 10.5013 4.304 10.832C3.728 11.1627 3.27467 11.6373 2.944 12.256C2.624 12.8747 2.464 13.5947 2.464 14.416C2.464 15.2373 2.624 15.9573 2.944 16.576C3.27467 17.1947 3.728 17.6747 4.304 18.016C4.88 18.3467 5.536 18.512 6.272 18.512C6.944 18.512 7.536 18.368 8.048 18.08C8.56 17.792 8.96 17.3547 9.248 16.768H11.44C11.024 17.8347 10.352 18.656 9.424 19.232C8.50667 19.808 7.456 20.096 6.272 20.096C5.22667 20.096 4.272 19.856 3.408 19.376C2.544 18.8853 1.856 18.208 1.344 17.344C0.842667 16.48 0.592 15.504 0.592 14.416ZM15.399 8.16V20H13.575V8.16H15.399ZM18.7218 10.016C18.3911 10.016 18.1138 9.904 17.8898 9.68C17.6658 9.456 17.5538 9.17867 17.5538 8.848C17.5538 8.51733 17.6658 8.24 17.8898 8.016C18.1138 7.792 18.3911 7.68 18.7218 7.68C19.0418 7.68 19.3138 7.792 19.5378 8.016C19.7618 8.24 19.8738 8.51733 19.8738 8.848C19.8738 9.17867 19.7618 9.456 19.5378 9.68C19.3138 9.904 19.0418 10.016 18.7218 10.016ZM19.6178 11.184V20H17.7938V11.184H19.6178ZM30.0925 15.376C30.0925 15.7067 30.0712 16.0053 30.0285 16.272H23.2925C23.3458 16.976 23.6072 17.5413 24.0765 17.968C24.5458 18.3947 25.1218 18.608 25.8045 18.608C26.7858 18.608 27.4792 18.1973 27.8845 17.376H29.8525C29.5858 18.1867 29.1005 18.8533 28.3965 19.376C27.7032 19.888 26.8392 20.144 25.8045 20.144C24.9618 20.144 24.2045 19.9573 23.5325 19.584C22.8712 19.2 22.3485 18.6667 21.9645 17.984C21.5912 17.2907 21.4045 16.4907 21.4045 15.584C21.4045 14.6773 21.5858 13.8827 21.9485 13.2C22.3218 12.5067 22.8392 11.9733 23.5005 11.6C24.1725 11.2267 24.9405 11.04 25.8045 11.04C26.6365 11.04 27.3778 11.2213 28.0285 11.584C28.6792 11.9467 29.1858 12.4587 29.5485 13.12C29.9112 13.7707 30.0925 14.5227 30.0925 15.376ZM28.1885 14.8C28.1778 14.128 27.9378 13.5893 27.4685 13.184C26.9992 12.7787 26.4178 12.576 25.7245 12.576C25.0952 12.576 24.5565 12.7787 24.1085 13.184C23.6605 13.5787 23.3938 14.1173 23.3085 14.8H28.1885ZM36.3355 11.04C37.0288 11.04 37.6475 11.184 38.1915 11.472C38.7462 11.76 39.1782 12.1867 39.4875 12.752C39.7968 13.3173 39.9515 14 39.9515 14.8V20H38.1435V15.072C38.1435 14.2827 37.9462 13.68 37.5515 13.264C37.1568 12.8373 36.6182 12.624 35.9355 12.624C35.2528 12.624 34.7088 12.8373 34.3035 13.264C33.9088 13.68 33.7115 14.2827 33.7115 15.072V20H31.8875V11.184H33.7115V12.192C34.0102 11.8293 34.3888 11.5467 34.8475 11.344C35.3168 11.1413 35.8128 11.04 36.3355 11.04ZM44.4061 12.672V17.552C44.4061 17.8827 44.4808 18.1227 44.6301 18.272C44.7901 18.4107 45.0568 18.48 45.4301 18.48H46.5501V20H45.1101C44.2888 20 43.6595 19.808 43.2221 19.424C42.7848 19.04 42.5661 18.416 42.5661 17.552V12.672H41.5261V11.184H42.5661V8.992H44.4061V11.184H46.5501V12.672H44.4061Z" fill="#282938"/>
<path d="M7.344 47.008H4.896V58H2.136V47.008H0.576V44.776H2.136V43.84C2.136 42.32 2.536 41.216 3.336 40.528C4.152 39.824 5.424 39.472 7.152 39.472V41.752C6.32 41.752 5.736 41.912 5.4 42.232C5.064 42.536 4.896 43.072 4.896 43.84V44.776H7.344V47.008ZM8.85675 51.328C8.85675 50 9.12875 48.824 9.67275 47.8C10.2328 46.776 10.9848 45.984 11.9288 45.424C12.8888 44.848 13.9448 44.56 15.0968 44.56C16.1368 44.56 17.0408 44.768 17.8088 45.184C18.5928 45.584 19.2168 46.088 19.6808 46.696V44.776H22.4408V58H19.6808V56.032C19.2168 56.656 18.5848 57.176 17.7848 57.592C16.9848 58.008 16.0728 58.216 15.0488 58.216C13.9128 58.216 12.8728 57.928 11.9288 57.352C10.9848 56.76 10.2328 55.944 9.67275 54.904C9.12875 53.848 8.85675 52.656 8.85675 51.328ZM19.6808 51.376C19.6808 50.464 19.4888 49.672 19.1048 49C18.7368 48.328 18.2488 47.816 17.6408 47.464C17.0328 47.112 16.3768 46.936 15.6728 46.936C14.9688 46.936 14.3128 47.112 13.7048 47.464C13.0968 47.8 12.6008 48.304 12.2168 48.976C11.8488 49.632 11.6648 50.416 11.6648 51.328C11.6648 52.24 11.8488 53.04 12.2168 53.728C12.6008 54.416 13.0968 54.944 13.7048 55.312C14.3288 55.664 14.9848 55.84 15.6728 55.84C16.3768 55.84 17.0328 55.664 17.6408 55.312C18.2488 54.96 18.7368 54.448 19.1048 53.776C19.4888 53.088 19.6808 52.288 19.6808 51.376ZM25.1224 51.376C25.1224 50.016 25.3944 48.824 25.9384 47.8C26.4984 46.76 27.2664 45.96 28.2424 45.4C29.2184 44.84 30.3384 44.56 31.6024 44.56C33.2024 44.56 34.5224 44.944 35.5624 45.712C36.6184 46.464 37.3304 47.544 37.6984 48.952H34.7464C34.5064 48.296 34.1224 47.784 33.5944 47.416C33.0664 47.048 32.4024 46.864 31.6024 46.864C30.4824 46.864 29.5864 47.264 28.9144 48.064C28.2584 48.848 27.9304 49.952 27.9304 51.376C27.9304 52.8 28.2584 53.912 28.9144 54.712C29.5864 55.512 30.4824 55.912 31.6024 55.912C33.1864 55.912 34.2344 55.216 34.7464 53.824H37.6984C37.3144 55.168 36.5944 56.24 35.5384 57.04C34.4824 57.824 33.1704 58.216 31.6024 58.216C30.3384 58.216 29.2184 57.936 28.2424 57.376C27.2664 56.8 26.4984 56 25.9384 54.976C25.3944 53.936 25.1224 52.736 25.1224 51.376ZM52.545 51.064C52.545 51.56 52.513 52.008 52.449 52.408H42.345C42.425 53.464 42.817 54.312 43.521 54.952C44.225 55.592 45.089 55.912 46.113 55.912C47.585 55.912 48.625 55.296 49.233 54.064H52.185C51.785 55.28 51.057 56.28 50.001 57.064C48.961 57.832 47.665 58.216 46.113 58.216C44.849 58.216 43.713 57.936 42.705 57.376C41.713 56.8 40.929 56 40.353 54.976C39.793 53.936 39.513 52.736 39.513 51.376C39.513 50.016 39.785 48.824 40.329 47.8C40.889 46.76 41.665 45.96 42.657 45.4C43.665 44.84 44.817 44.56 46.113 44.56C47.361 44.56 48.473 44.832 49.449 45.376C50.425 45.92 51.185 46.688 51.729 47.68C52.273 48.656 52.545 49.784 52.545 51.064ZM49.689 50.2C49.673 49.192 49.313 48.384 48.609 47.776C47.905 47.168 47.033 46.864 45.993 46.864C45.049 46.864 44.241 47.168 43.569 47.776C42.897 48.368 42.497 49.176 42.369 50.2H49.689ZM57.9735 46.744C58.4375 46.104 59.0695 45.584 59.8695 45.184C60.6855 44.768 61.5895 44.56 62.5815 44.56C63.7495 44.56 64.8055 44.84 65.7495 45.4C66.6935 45.96 67.4375 46.76 67.9815 47.8C68.5255 48.824 68.7975 50 68.7975 51.328C68.7975 52.656 68.5255 53.848 67.9815 54.904C67.4375 55.944 66.6855 56.76 65.7255 57.352C64.7815 57.928 63.7335 58.216 62.5815 58.216C61.5575 58.216 60.6455 58.016 59.8455 57.616C59.0615 57.216 58.4375 56.704 57.9735 56.08V58H55.2375V40.24H57.9735V46.744ZM66.0135 51.328C66.0135 50.416 65.8215 49.632 65.4375 48.976C65.0695 48.304 64.5735 47.8 63.9495 47.464C63.3415 47.112 62.6855 46.936 61.9815 46.936C61.2935 46.936 60.6375 47.112 60.0135 47.464C59.4055 47.816 58.9095 48.328 58.5255 49C58.1575 49.672 57.9735 50.464 57.9735 51.376C57.9735 52.288 58.1575 53.088 58.5255 53.776C58.9095 54.448 59.4055 54.96 60.0135 55.312C60.6375 55.664 61.2935 55.84 61.9815 55.84C62.6855 55.84 63.3415 55.664 63.9495 55.312C64.5735 54.944 65.0695 54.416 65.4375 53.728C65.8215 53.04 66.0135 52.24 66.0135 51.328ZM77.2391 58.216C75.9911 58.216 74.8631 57.936 73.8551 57.376C72.8471 56.8 72.0551 56 71.4791 54.976C70.9031 53.936 70.6151 52.736 70.6151 51.376C70.6151 50.032 70.9111 48.84 71.5031 47.8C72.0951 46.76 72.9031 45.96 73.9271 45.4C74.9511 44.84 76.0951 44.56 77.3591 44.56C78.6231 44.56 79.7671 44.84 80.7911 45.4C81.8151 45.96 82.6231 46.76 83.2151 47.8C83.8071 48.84 84.1031 50.032 84.1031 51.376C84.1031 52.72 83.7991 53.912 83.1911 54.952C82.5831 55.992 81.7511 56.8 80.6951 57.376C79.6551 57.936 78.5031 58.216 77.2391 58.216ZM77.2391 55.84C77.9431 55.84 78.5991 55.672 79.2071 55.336C79.8311 55 80.3351 54.496 80.7191 53.824C81.1031 53.152 81.2951 52.336 81.2951 51.376C81.2951 50.416 81.1111 49.608 80.7431 48.952C80.3751 48.28 79.8871 47.776 79.2791 47.44C78.6711 47.104 78.0151 46.936 77.3111 46.936C76.6071 46.936 75.9511 47.104 75.3431 47.44C74.7511 47.776 74.2791 48.28 73.9271 48.952C73.5751 49.608 73.3991 50.416 73.3991 51.376C73.3991 52.8 73.7591 53.904 74.4791 54.688C75.2151 55.456 76.1351 55.84 77.2391 55.84ZM92.5438 58.216C91.2958 58.216 90.1678 57.936 89.1598 57.376C88.1518 56.8 87.3598 56 86.7838 54.976C86.2078 53.936 85.9198 52.736 85.9198 51.376C85.9198 50.032 86.2158 48.84 86.8078 47.8C87.3998 46.76 88.2078 45.96 89.2318 45.4C90.2558 44.84 91.3998 44.56 92.6638 44.56C93.9278 44.56 95.0718 44.84 96.0958 45.4C97.1198 45.96 97.9278 46.76 98.5198 47.8C99.1118 48.84 99.4078 50.032 99.4078 51.376C99.4078 52.72 99.1038 53.912 98.4958 54.952C97.8878 55.992 97.0558 56.8 95.9998 57.376C94.9598 57.936 93.8078 58.216 92.5438 58.216ZM92.5438 55.84C93.2478 55.84 93.9038 55.672 94.5118 55.336C95.1358 55 95.6398 54.496 96.0238 53.824C96.4078 53.152 96.5998 52.336 96.5998 51.376C96.5998 50.416 96.4158 49.608 96.0478 48.952C95.6798 48.28 95.1918 47.776 94.5838 47.44C93.9758 47.104 93.3198 46.936 92.6158 46.936C91.9118 46.936 91.2558 47.104 90.6478 47.44C90.0558 47.776 89.5838 48.28 89.2318 48.952C88.8798 49.608 88.7038 50.416 88.7038 51.376C88.7038 52.8 89.0638 53.904 89.7838 54.688C90.5198 55.456 91.4398 55.84 92.5438 55.84ZM107.345 51.4L113.441 58H109.745L104.849 52.312V58H102.113V40.24H104.849V50.56L109.649 44.776H113.441L107.345 51.4ZM116.506 58.168C116.01 58.168 115.594 58 115.258 57.664C114.922 57.328 114.754 56.912 114.754 56.416C114.754 55.92 114.922 55.504 115.258 55.168C115.594 54.832 116.01 54.664 116.506 54.664C116.986 54.664 117.394 54.832 117.73 55.168C118.066 55.504 118.234 55.92 118.234 56.416C118.234 56.912 118.066 57.328 117.73 57.664C117.394 58 116.986 58.168 116.506 58.168ZM120.279 51.376C120.279 50.016 120.551 48.824 121.095 47.8C121.655 46.76 122.423 45.96 123.399 45.4C124.375 44.84 125.495 44.56 126.759 44.56C128.359 44.56 129.679 44.944 130.719 45.712C131.775 46.464 132.487 47.544 132.855 48.952H129.903C129.663 48.296 129.279 47.784 128.751 47.416C128.223 47.048 127.559 46.864 126.759 46.864C125.639 46.864 124.743 47.264 124.071 48.064C123.415 48.848 123.087 49.952 123.087 51.376C123.087 52.8 123.415 53.912 124.071 54.712C124.743 55.512 125.639 55.912 126.759 55.912C128.343 55.912 129.391 55.216 129.903 53.824H132.855C132.471 55.168 131.751 56.24 130.695 57.04C129.639 57.824 128.327 58.216 126.759 58.216C125.495 58.216 124.375 57.936 123.399 57.376C122.423 56.8 121.655 56 121.095 54.976C120.551 53.936 120.279 52.736 120.279 51.376ZM141.317 58.216C140.069 58.216 138.941 57.936 137.933 57.376C136.925 56.8 136.133 56 135.557 54.976C134.981 53.936 134.693 52.736 134.693 51.376C134.693 50.032 134.989 48.84 135.581 47.8C136.173 46.76 136.981 45.96 138.005 45.4C139.029 44.84 140.173 44.56 141.437 44.56C142.701 44.56 143.845 44.84 144.869 45.4C145.893 45.96 146.701 46.76 147.293 47.8C147.885 48.84 148.181 50.032 148.181 51.376C148.181 52.72 147.877 53.912 147.269 54.952C146.661 55.992 145.829 56.8 144.773 57.376C143.733 57.936 142.581 58.216 141.317 58.216ZM141.317 55.84C142.021 55.84 142.677 55.672 143.285 55.336C143.909 55 144.413 54.496 144.797 53.824C145.181 53.152 145.373 52.336 145.373 51.376C145.373 50.416 145.189 49.608 144.821 48.952C144.453 48.28 143.965 47.776 143.357 47.44C142.749 47.104 142.093 46.936 141.389 46.936C140.685 46.936 140.029 47.104 139.421 47.44C138.829 47.776 138.357 48.28 138.005 48.952C137.653 49.608 137.477 50.416 137.477 51.376C137.477 52.8 137.837 53.904 138.557 54.688C139.293 55.456 140.213 55.84 141.317 55.84ZM166.894 44.56C167.934 44.56 168.862 44.776 169.678 45.208C170.51 45.64 171.158 46.28 171.622 47.128C172.102 47.976 172.342 49 172.342 50.2V58H169.63V50.608C169.63 49.424 169.334 48.52 168.742 47.896C168.15 47.256 167.342 46.936 166.318 46.936C165.294 46.936 164.478 47.256 163.87 47.896C163.278 48.52 162.982 49.424 162.982 50.608V58H160.27V50.608C160.27 49.424 159.974 48.52 159.382 47.896C158.79 47.256 157.982 46.936 156.958 46.936C155.934 46.936 155.118 47.256 154.51 47.896C153.918 48.52 153.622 49.424 153.622 50.608V58H150.886V44.776H153.622V46.288C154.07 45.744 154.638 45.32 155.326 45.016C156.014 44.712 156.75 44.56 157.534 44.56C158.59 44.56 159.534 44.784 160.366 45.232C161.198 45.68 161.838 46.328 162.286 47.176C162.686 46.376 163.31 45.744 164.158 45.28C165.006 44.8 165.918 44.56 166.894 44.56Z" fill="#282938"/>
<path opacity="0.8" d="M332.864 20.112C332.117 20.112 331.445 19.984 330.848 19.728C330.251 19.4613 329.781 19.088 329.44 18.608C329.099 18.128 328.928 17.568 328.928 16.928H330.88C330.923 17.408 331.109 17.8027 331.44 18.112C331.781 18.4213 332.256 18.576 332.864 18.576C333.493 18.576 333.984 18.4267 334.336 18.128C334.688 17.8187 334.864 17.424 334.864 16.944C334.864 16.5707 334.752 16.2667 334.528 16.032C334.315 15.7973 334.043 15.616 333.712 15.488C333.392 15.36 332.944 15.2213 332.368 15.072C331.643 14.88 331.051 14.688 330.592 14.496C330.144 14.2933 329.76 13.984 329.44 13.568C329.12 13.152 328.96 12.5973 328.96 11.904C328.96 11.264 329.12 10.704 329.44 10.224C329.76 9.744 330.208 9.376 330.784 9.12C331.36 8.864 332.027 8.736 332.784 8.736C333.861 8.736 334.741 9.008 335.424 9.552C336.117 10.0853 336.501 10.8213 336.576 11.76H334.56C334.528 11.3547 334.336 11.008 333.984 10.72C333.632 10.432 333.168 10.288 332.592 10.288C332.069 10.288 331.643 10.4213 331.312 10.688C330.981 10.9547 330.816 11.3387 330.816 11.84C330.816 12.1813 330.917 12.464 331.12 12.688C331.333 12.9013 331.6 13.072 331.92 13.2C332.24 13.328 332.677 13.4667 333.232 13.616C333.968 13.8187 334.565 14.0213 335.024 14.224C335.493 14.4267 335.888 14.7413 336.208 15.168C336.539 15.584 336.704 16.144 336.704 16.848C336.704 17.4133 336.549 17.9467 336.24 18.448C335.941 18.9493 335.499 19.3547 334.912 19.664C334.336 19.9627 333.653 20.112 332.864 20.112ZM346.936 15.376C346.936 15.7067 346.915 16.0053 346.872 16.272H340.136C340.19 16.976 340.451 17.5413 340.92 17.968C341.39 18.3947 341.966 18.608 342.648 18.608C343.63 18.608 344.323 18.1973 344.728 17.376H346.696C346.43 18.1867 345.944 18.8533 345.24 19.376C344.547 19.888 343.683 20.144 342.648 20.144C341.806 20.144 341.048 19.9573 340.376 19.584C339.715 19.2 339.192 18.6667 338.808 17.984C338.435 17.2907 338.248 16.4907 338.248 15.584C338.248 14.6773 338.43 13.8827 338.792 13.2C339.166 12.5067 339.683 11.9733 340.344 11.6C341.016 11.2267 341.784 11.04 342.648 11.04C343.48 11.04 344.222 11.2213 344.872 11.584C345.523 11.9467 346.03 12.4587 346.392 13.12C346.755 13.7707 346.936 14.5227 346.936 15.376ZM345.032 14.8C345.022 14.128 344.782 13.5893 344.312 13.184C343.843 12.7787 343.262 12.576 342.568 12.576C341.939 12.576 341.4 12.7787 340.952 13.184C340.504 13.5787 340.238 14.1173 340.152 14.8H345.032ZM350.555 12.464C350.822 12.016 351.174 11.6693 351.611 11.424C352.059 11.168 352.587 11.04 353.195 11.04V12.928H352.731C352.017 12.928 351.473 13.1093 351.099 13.472C350.737 13.8347 350.555 14.464 350.555 15.36V20H348.731V11.184H350.555V12.464ZM358.28 18.368L360.776 11.184H362.712L359.352 20H357.176L353.832 11.184H355.784L358.28 18.368ZM365.019 10.016C364.688 10.016 364.411 9.904 364.187 9.68C363.963 9.456 363.851 9.17867 363.851 8.848C363.851 8.51733 363.963 8.24 364.187 8.016C364.411 7.792 364.688 7.68 365.019 7.68C365.339 7.68 365.611 7.792 365.835 8.016C366.059 8.24 366.171 8.51733 366.171 8.848C366.171 9.17867 366.059 9.456 365.835 9.68C365.611 9.904 365.339 10.016 365.019 10.016ZM365.915 11.184V20H364.091V11.184H365.915ZM367.701 15.584C367.701 14.6773 367.883 13.8827 368.245 13.2C368.619 12.5067 369.131 11.9733 369.781 11.6C370.432 11.2267 371.179 11.04 372.021 11.04C373.088 11.04 373.968 11.296 374.661 11.808C375.365 12.3093 375.84 13.0293 376.085 13.968H374.117C373.957 13.5307 373.701 13.1893 373.349 12.944C372.997 12.6987 372.555 12.576 372.021 12.576C371.275 12.576 370.677 12.8427 370.229 13.376C369.792 13.8987 369.573 14.6347 369.573 15.584C369.573 16.5333 369.792 17.2747 370.229 17.808C370.677 18.3413 371.275 18.608 372.021 18.608C373.077 18.608 373.776 18.144 374.117 17.216H376.085C375.829 18.112 375.349 18.8267 374.645 19.36C373.941 19.8827 373.067 20.144 372.021 20.144C371.179 20.144 370.432 19.9573 369.781 19.584C369.131 19.2 368.619 18.6667 368.245 17.984C367.883 17.2907 367.701 16.4907 367.701 15.584ZM385.983 15.376C385.983 15.7067 385.962 16.0053 385.919 16.272H379.183C379.236 16.976 379.498 17.5413 379.967 17.968C380.436 18.3947 381.012 18.608 381.695 18.608C382.676 18.608 383.37 18.1973 383.775 17.376H385.743C385.476 18.1867 384.991 18.8533 384.287 19.376C383.594 19.888 382.73 20.144 381.695 20.144C380.852 20.144 380.095 19.9573 379.423 19.584C378.762 19.2 378.239 18.6667 377.855 17.984C377.482 17.2907 377.295 16.4907 377.295 15.584C377.295 14.6773 377.476 13.8827 377.839 13.2C378.212 12.5067 378.73 11.9733 379.391 11.6C380.063 11.2267 380.831 11.04 381.695 11.04C382.527 11.04 383.268 11.2213 383.919 11.584C384.57 11.9467 385.076 12.4587 385.439 13.12C385.802 13.7707 385.983 14.5227 385.983 15.376ZM384.079 14.8C384.068 14.128 383.828 13.5893 383.359 13.184C382.89 12.7787 382.308 12.576 381.615 12.576C380.986 12.576 380.447 12.7787 379.999 13.184C379.551 13.5787 379.284 14.1173 379.199 14.8H384.079Z" fill="#282938"/>
<path d="M341.464 46.288C341.464 47.136 341.264 47.936 340.864 48.688C340.464 49.44 339.824 50.056 338.944 50.536C338.064 51 336.936 51.232 335.56 51.232H332.536V58H329.8V41.32H335.56C336.84 41.32 337.92 41.544 338.8 41.992C339.696 42.424 340.36 43.016 340.792 43.768C341.24 44.52 341.464 45.36 341.464 46.288ZM335.56 49C336.6 49 337.376 48.768 337.888 48.304C338.4 47.824 338.656 47.152 338.656 46.288C338.656 44.464 337.624 43.552 335.56 43.552H332.536V49H335.56ZM346.809 46.696C347.209 46.024 347.737 45.504 348.393 45.136C349.065 44.752 349.857 44.56 350.769 44.56V47.392H350.073C349.001 47.392 348.185 47.664 347.625 48.208C347.081 48.752 346.809 49.696 346.809 51.04V58H344.073V44.776H346.809V46.696ZM359.02 58.216C357.772 58.216 356.644 57.936 355.636 57.376C354.628 56.8 353.836 56 353.26 54.976C352.684 53.936 352.396 52.736 352.396 51.376C352.396 50.032 352.692 48.84 353.284 47.8C353.876 46.76 354.684 45.96 355.708 45.4C356.732 44.84 357.876 44.56 359.14 44.56C360.404 44.56 361.548 44.84 362.572 45.4C363.596 45.96 364.404 46.76 364.996 47.8C365.588 48.84 365.884 50.032 365.884 51.376C365.884 52.72 365.58 53.912 364.972 54.952C364.364 55.992 363.532 56.8 362.476 57.376C361.436 57.936 360.284 58.216 359.02 58.216ZM359.02 55.84C359.724 55.84 360.38 55.672 360.988 55.336C361.612 55 362.116 54.496 362.5 53.824C362.884 53.152 363.076 52.336 363.076 51.376C363.076 50.416 362.892 49.608 362.524 48.952C362.156 48.28 361.668 47.776 361.06 47.44C360.452 47.104 359.796 46.936 359.092 46.936C358.388 46.936 357.732 47.104 357.124 47.44C356.532 47.776 356.06 48.28 355.708 48.952C355.356 49.608 355.18 50.416 355.18 51.376C355.18 52.8 355.54 53.904 356.26 54.688C356.996 55.456 357.916 55.84 359.02 55.84ZM367.677 51.328C367.677 50 367.949 48.824 368.493 47.8C369.053 46.776 369.805 45.984 370.749 45.424C371.709 44.848 372.773 44.56 373.941 44.56C374.805 44.56 375.653 44.752 376.485 45.136C377.333 45.504 378.005 46 378.501 46.624V40.24H381.261V58H378.501V56.008C378.053 56.648 377.429 57.176 376.629 57.592C375.845 58.008 374.941 58.216 373.917 58.216C372.765 58.216 371.709 57.928 370.749 57.352C369.805 56.76 369.053 55.944 368.493 54.904C367.949 53.848 367.677 52.656 367.677 51.328ZM378.501 51.376C378.501 50.464 378.309 49.672 377.925 49C377.557 48.328 377.069 47.816 376.461 47.464C375.853 47.112 375.197 46.936 374.493 46.936C373.789 46.936 373.133 47.112 372.525 47.464C371.917 47.8 371.421 48.304 371.037 48.976C370.669 49.632 370.485 50.416 370.485 51.328C370.485 52.24 370.669 53.04 371.037 53.728C371.421 54.416 371.917 54.944 372.525 55.312C373.149 55.664 373.805 55.84 374.493 55.84C375.197 55.84 375.853 55.664 376.461 55.312C377.069 54.96 377.557 54.448 377.925 53.776C378.309 53.088 378.501 52.288 378.501 51.376ZM396.831 44.776V58H394.095V56.44C393.663 56.984 393.095 57.416 392.391 57.736C391.703 58.04 390.967 58.192 390.183 58.192C389.143 58.192 388.207 57.976 387.375 57.544C386.559 57.112 385.911 56.472 385.431 55.624C384.967 54.776 384.735 53.752 384.735 52.552V44.776H387.447V52.144C387.447 53.328 387.743 54.24 388.335 54.88C388.927 55.504 389.735 55.816 390.759 55.816C391.783 55.816 392.591 55.504 393.183 54.88C393.791 54.24 394.095 53.328 394.095 52.144V44.776H396.831ZM399.529 51.376C399.529 50.016 399.801 48.824 400.345 47.8C400.905 46.76 401.673 45.96 402.649 45.4C403.625 44.84 404.745 44.56 406.009 44.56C407.609 44.56 408.929 44.944 409.969 45.712C411.025 46.464 411.737 47.544 412.105 48.952H409.153C408.913 48.296 408.529 47.784 408.001 47.416C407.473 47.048 406.809 46.864 406.009 46.864C404.889 46.864 403.993 47.264 403.321 48.064C402.665 48.848 402.337 49.952 402.337 51.376C402.337 52.8 402.665 53.912 403.321 54.712C403.993 55.512 404.889 55.912 406.009 55.912C407.593 55.912 408.641 55.216 409.153 53.824H412.105C411.721 55.168 411.001 56.24 409.945 57.04C408.889 57.824 407.577 58.216 406.009 58.216C404.745 58.216 403.625 57.936 402.649 57.376C401.673 56.8 400.905 56 400.345 54.976C399.801 53.936 399.529 52.736 399.529 51.376ZM418.023 47.008V54.328C418.023 54.824 418.135 55.184 418.359 55.408C418.599 55.616 418.999 55.72 419.559 55.72H421.239V58H419.079C417.847 58 416.903 57.712 416.247 57.136C415.591 56.56 415.263 55.624 415.263 54.328V47.008H413.703V44.776H415.263V41.488H418.023V44.776H421.239V47.008H418.023ZM435.443 41.32C437.219 41.32 438.771 41.664 440.099 42.352C441.443 43.024 442.475 44 443.195 45.28C443.931 46.544 444.299 48.024 444.299 49.72C444.299 51.416 443.931 52.888 443.195 54.136C442.475 55.384 441.443 56.344 440.099 57.016C438.771 57.672 437.219 58 435.443 58H429.995V41.32H435.443ZM435.443 55.768C437.395 55.768 438.891 55.24 439.931 54.184C440.971 53.128 441.491 51.64 441.491 49.72C441.491 47.784 440.971 46.272 439.931 45.184C438.891 44.096 437.395 43.552 435.443 43.552H432.731V55.768H435.443ZM459.131 51.064C459.131 51.56 459.099 52.008 459.035 52.408H448.931C449.011 53.464 449.403 54.312 450.107 54.952C450.811 55.592 451.675 55.912 452.699 55.912C454.171 55.912 455.211 55.296 455.819 54.064H458.771C458.371 55.28 457.643 56.28 456.587 57.064C455.547 57.832 454.251 58.216 452.699 58.216C451.435 58.216 450.299 57.936 449.291 57.376C448.299 56.8 447.515 56 446.939 54.976C446.379 53.936 446.099 52.736 446.099 51.376C446.099 50.016 446.371 48.824 446.915 47.8C447.475 46.76 448.251 45.96 449.243 45.4C450.251 44.84 451.403 44.56 452.699 44.56C453.947 44.56 455.059 44.832 456.035 45.376C457.011 45.92 457.771 46.688 458.315 47.68C458.859 48.656 459.131 49.784 459.131 51.064ZM456.275 50.2C456.259 49.192 455.899 48.384 455.195 47.776C454.491 47.168 453.619 46.864 452.579 46.864C451.635 46.864 450.827 47.168 450.155 47.776C449.483 48.368 449.083 49.176 448.955 50.2H456.275ZM466.623 58.216C465.583 58.216 464.647 58.032 463.815 57.664C462.999 57.28 462.351 56.768 461.871 56.128C461.391 55.472 461.135 54.744 461.103 53.944H463.935C463.983 54.504 464.247 54.976 464.727 55.36C465.223 55.728 465.839 55.912 466.575 55.912C467.343 55.912 467.935 55.768 468.351 55.48C468.783 55.176 468.999 54.792 468.999 54.328C468.999 53.832 468.759 53.464 468.279 53.224C467.815 52.984 467.071 52.72 466.047 52.432C465.055 52.16 464.247 51.896 463.623 51.64C462.999 51.384 462.455 50.992 461.991 50.464C461.543 49.936 461.319 49.24 461.319 48.376C461.319 47.672 461.527 47.032 461.943 46.456C462.359 45.864 462.951 45.4 463.719 45.064C464.503 44.728 465.399 44.56 466.407 44.56C467.911 44.56 469.119 44.944 470.031 45.712C470.959 46.464 471.455 47.496 471.519 48.808H468.783C468.735 48.216 468.495 47.744 468.063 47.392C467.631 47.04 467.047 46.864 466.311 46.864C465.591 46.864 465.039 47 464.655 47.272C464.271 47.544 464.079 47.904 464.079 48.352C464.079 48.704 464.207 49 464.463 49.24C464.719 49.48 465.031 49.672 465.399 49.816C465.767 49.944 466.311 50.112 467.031 50.32C467.991 50.576 468.775 50.84 469.383 51.112C470.007 51.368 470.543 51.752 470.991 52.264C471.439 52.776 471.671 53.456 471.687 54.304C471.687 55.056 471.479 55.728 471.063 56.32C470.647 56.912 470.055 57.376 469.287 57.712C468.535 58.048 467.647 58.216 466.623 58.216ZM476.036 43.024C475.54 43.024 475.124 42.856 474.788 42.52C474.452 42.184 474.284 41.768 474.284 41.272C474.284 40.776 474.452 40.36 474.788 40.024C475.124 39.688 475.54 39.52 476.036 39.52C476.516 39.52 476.924 39.688 477.26 40.024C477.596 40.36 477.764 40.776 477.764 41.272C477.764 41.768 477.596 42.184 477.26 42.52C476.924 42.856 476.516 43.024 476.036 43.024ZM477.38 44.776V58H474.644V44.776H477.38ZM486.3 44.56C487.324 44.56 488.228 44.768 489.012 45.184C489.812 45.584 490.436 46.088 490.884 46.696V44.776H493.644V58.216C493.644 59.432 493.388 60.512 492.876 61.456C492.364 62.416 491.62 63.168 490.644 63.712C489.684 64.256 488.532 64.528 487.188 64.528C485.396 64.528 483.908 64.104 482.724 63.256C481.54 62.424 480.868 61.288 480.708 59.848H483.42C483.628 60.536 484.068 61.088 484.74 61.504C485.428 61.936 486.244 62.152 487.188 62.152C488.292 62.152 489.18 61.816 489.852 61.144C490.54 60.472 490.884 59.496 490.884 58.216V56.008C490.42 56.632 489.788 57.16 488.988 57.592C488.204 58.008 487.308 58.216 486.3 58.216C485.148 58.216 484.092 57.928 483.132 57.352C482.188 56.76 481.436 55.944 480.876 54.904C480.332 53.848 480.06 52.656 480.06 51.328C480.06 50 480.332 48.824 480.876 47.8C481.436 46.776 482.188 45.984 483.132 45.424C484.092 44.848 485.148 44.56 486.3 44.56ZM490.884 51.376C490.884 50.464 490.692 49.672 490.308 49C489.94 48.328 489.452 47.816 488.844 47.464C488.236 47.112 487.58 46.936 486.876 46.936C486.172 46.936 485.516 47.112 484.908 47.464C484.3 47.8 483.804 48.304 483.42 48.976C483.052 49.632 482.868 50.416 482.868 51.328C482.868 52.24 483.052 53.04 483.42 53.728C483.804 54.416 484.3 54.944 484.908 55.312C485.532 55.664 486.188 55.84 486.876 55.84C487.58 55.84 488.236 55.664 488.844 55.312C489.452 54.96 489.94 54.448 490.308 53.776C490.692 53.088 490.884 52.288 490.884 51.376ZM503.91 44.56C504.95 44.56 505.878 44.776 506.694 45.208C507.526 45.64 508.174 46.28 508.638 47.128C509.102 47.976 509.334 49 509.334 50.2V58H506.622V50.608C506.622 49.424 506.326 48.52 505.734 47.896C505.142 47.256 504.334 46.936 503.31 46.936C502.286 46.936 501.47 47.256 500.862 47.896C500.27 48.52 499.974 49.424 499.974 50.608V58H497.238V44.776H499.974V46.288C500.422 45.744 500.99 45.32 501.678 45.016C502.382 44.712 503.126 44.56 503.91 44.56Z" fill="#282938"/>
<path opacity="0.8" d="M660.832 8.88C662.016 8.88 663.051 9.10933 663.936 9.568C664.832 10.016 665.52 10.6667 666 11.52C666.491 12.3627 666.736 13.3493 666.736 14.48C666.736 15.6107 666.491 16.592 666 17.424C665.52 18.256 664.832 18.896 663.936 19.344C663.051 19.7813 662.016 20 660.832 20H657.2V8.88H660.832ZM660.832 18.512C662.133 18.512 663.131 18.16 663.824 17.456C664.517 16.752 664.864 15.76 664.864 14.48C664.864 13.1893 664.517 12.1813 663.824 11.456C663.131 10.7307 662.133 10.368 660.832 10.368H659.024V18.512H660.832ZM676.624 15.376C676.624 15.7067 676.602 16.0053 676.56 16.272H669.824C669.877 16.976 670.138 17.5413 670.608 17.968C671.077 18.3947 671.653 18.608 672.336 18.608C673.317 18.608 674.01 18.1973 674.416 17.376H676.384C676.117 18.1867 675.632 18.8533 674.928 19.376C674.234 19.888 673.37 20.144 672.336 20.144C671.493 20.144 670.736 19.9573 670.064 19.584C669.402 19.2 668.88 18.6667 668.496 17.984C668.122 17.2907 667.936 16.4907 667.936 15.584C667.936 14.6773 668.117 13.8827 668.48 13.2C668.853 12.5067 669.37 11.9733 670.032 11.6C670.704 11.2267 671.472 11.04 672.336 11.04C673.168 11.04 673.909 11.2213 674.56 11.584C675.21 11.9467 675.717 12.4587 676.08 13.12C676.442 13.7707 676.624 14.5227 676.624 15.376ZM674.72 14.8C674.709 14.128 674.469 13.5893 674 13.184C673.53 12.7787 672.949 12.576 672.256 12.576C671.626 12.576 671.088 12.7787 670.64 13.184C670.192 13.5787 669.925 14.1173 669.84 14.8H674.72ZM680.243 8.16V20H678.419V8.16H680.243ZM683.566 10.016C683.235 10.016 682.958 9.904 682.734 9.68C682.51 9.456 682.398 9.17867 682.398 8.848C682.398 8.51733 682.51 8.24 682.734 8.016C682.958 7.792 683.235 7.68 683.566 7.68C683.886 7.68 684.158 7.792 684.382 8.016C684.606 8.24 684.718 8.51733 684.718 8.848C684.718 9.17867 684.606 9.456 684.382 9.68C684.158 9.904 683.886 10.016 683.566 10.016ZM684.462 11.184V20H682.638V11.184H684.462ZM690.264 18.368L692.76 11.184H694.696L691.336 20H689.16L685.816 11.184H687.768L690.264 18.368ZM704.155 15.376C704.155 15.7067 704.134 16.0053 704.091 16.272H697.355C697.408 16.976 697.67 17.5413 698.139 17.968C698.608 18.3947 699.184 18.608 699.867 18.608C700.848 18.608 701.542 18.1973 701.947 17.376H703.915C703.648 18.1867 703.163 18.8533 702.459 19.376C701.766 19.888 700.902 20.144 699.867 20.144C699.024 20.144 698.267 19.9573 697.595 19.584C696.934 19.2 696.411 18.6667 696.027 17.984C695.654 17.2907 695.467 16.4907 695.467 15.584C695.467 14.6773 695.648 13.8827 696.011 13.2C696.384 12.5067 696.902 11.9733 697.563 11.6C698.235 11.2267 699.003 11.04 699.867 11.04C700.699 11.04 701.44 11.2213 702.091 11.584C702.742 11.9467 703.248 12.4587 703.611 13.12C703.974 13.7707 704.155 14.5227 704.155 15.376ZM702.251 14.8C702.24 14.128 702 13.5893 701.531 13.184C701.062 12.7787 700.48 12.576 699.787 12.576C699.158 12.576 698.619 12.7787 698.171 13.184C697.723 13.5787 697.456 14.1173 697.371 14.8H702.251ZM707.774 12.464C708.041 12.016 708.393 11.6693 708.83 11.424C709.278 11.168 709.806 11.04 710.414 11.04V12.928H709.95C709.235 12.928 708.691 13.1093 708.318 13.472C707.955 13.8347 707.774 14.464 707.774 15.36V20H705.95V11.184H707.774V12.464ZM711.483 15.552C711.483 14.6667 711.664 13.8827 712.027 13.2C712.4 12.5173 712.901 11.9893 713.531 11.616C714.171 11.232 714.875 11.04 715.643 11.04C716.336 11.04 716.939 11.1787 717.451 11.456C717.973 11.7227 718.389 12.0587 718.699 12.464V11.184H720.539V20H718.699V18.688C718.389 19.104 717.968 19.4507 717.435 19.728C716.901 20.0053 716.293 20.144 715.611 20.144C714.853 20.144 714.16 19.952 713.531 19.568C712.901 19.1733 712.4 18.6293 712.027 17.936C711.664 17.232 711.483 16.4373 711.483 15.552ZM718.699 15.584C718.699 14.976 718.571 14.448 718.315 14C718.069 13.552 717.744 13.2107 717.339 12.976C716.933 12.7413 716.496 12.624 716.027 12.624C715.557 12.624 715.12 12.7413 714.715 12.976C714.309 13.2 713.979 13.536 713.723 13.984C713.477 14.4213 713.355 14.944 713.355 15.552C713.355 16.16 713.477 16.6933 713.723 17.152C713.979 17.6107 714.309 17.9627 714.715 18.208C715.131 18.4427 715.568 18.56 716.027 18.56C716.496 18.56 716.933 18.4427 717.339 18.208C717.744 17.9733 718.069 17.632 718.315 17.184C718.571 16.7253 718.699 16.192 718.699 15.584ZM724.758 12.496C725.068 12.0693 725.489 11.7227 726.022 11.456C726.566 11.1787 727.169 11.04 727.83 11.04C728.609 11.04 729.313 11.2267 729.942 11.6C730.572 11.9733 731.068 12.5067 731.43 13.2C731.793 13.8827 731.974 14.6667 731.974 15.552C731.974 16.4373 731.793 17.232 731.43 17.936C731.068 18.6293 730.566 19.1733 729.926 19.568C729.297 19.952 728.598 20.144 727.83 20.144C727.148 20.144 726.54 20.0107 726.006 19.744C725.484 19.4773 725.068 19.136 724.758 18.72V20H722.934V8.16H724.758V12.496ZM730.118 15.552C730.118 14.944 729.99 14.4213 729.734 13.984C729.489 13.536 729.158 13.2 728.742 12.976C728.337 12.7413 727.9 12.624 727.43 12.624C726.972 12.624 726.534 12.7413 726.118 12.976C725.713 13.2107 725.382 13.552 725.126 14C724.881 14.448 724.758 14.976 724.758 15.584C724.758 16.192 724.881 16.7253 725.126 17.184C725.382 17.632 725.713 17.9733 726.118 18.208C726.534 18.4427 726.972 18.56 727.43 18.56C727.9 18.56 728.337 18.4427 728.742 18.208C729.158 17.9627 729.489 17.6107 729.734 17.152C729.99 16.6933 730.118 16.16 730.118 15.552ZM735.602 8.16V20H733.778V8.16H735.602ZM746.077 15.376C746.077 15.7067 746.056 16.0053 746.013 16.272H739.277C739.33 16.976 739.592 17.5413 740.061 17.968C740.53 18.3947 741.106 18.608 741.789 18.608C742.77 18.608 743.464 18.1973 743.869 17.376H745.837C745.57 18.1867 745.085 18.8533 744.381 19.376C743.688 19.888 742.824 20.144 741.789 20.144C740.946 20.144 740.189 19.9573 739.517 19.584C738.856 19.2 738.333 18.6667 737.949 17.984C737.576 17.2907 737.389 16.4907 737.389 15.584C737.389 14.6773 737.57 13.8827 737.933 13.2C738.306 12.5067 738.824 11.9733 739.485 11.6C740.157 11.2267 740.925 11.04 741.789 11.04C742.621 11.04 743.362 11.2213 744.013 11.584C744.664 11.9467 745.17 12.4587 745.533 13.12C745.896 13.7707 746.077 14.5227 746.077 15.376ZM744.173 14.8C744.162 14.128 743.922 13.5893 743.453 13.184C742.984 12.7787 742.402 12.576 741.709 12.576C741.08 12.576 740.541 12.7787 740.093 13.184C739.645 13.5787 739.378 14.1173 739.293 14.8H744.173Z" fill="#282938"/>
<path d="M660.512 41.32V51.952C660.512 53.216 660.84 54.168 661.496 54.808C662.168 55.448 663.096 55.768 664.28 55.768C665.48 55.768 666.408 55.448 667.064 54.808C667.736 54.168 668.072 53.216 668.072 51.952V41.32H670.808V51.904C670.808 53.264 670.512 54.416 669.92 55.36C669.328 56.304 668.536 57.008 667.544 57.472C666.552 57.936 665.456 58.168 664.256 58.168C663.056 58.168 661.96 57.936 660.968 57.472C659.992 57.008 659.216 56.304 658.64 55.36C658.064 54.416 657.776 53.264 657.776 51.904V41.32H660.512ZM677.106 41.32V58H674.37V41.32H677.106ZM692.429 58.168C691.309 58.168 690.301 57.976 689.405 57.592C688.509 57.192 687.805 56.632 687.293 55.912C686.781 55.192 686.525 54.352 686.525 53.392H689.453C689.517 54.112 689.797 54.704 690.293 55.168C690.805 55.632 691.517 55.864 692.429 55.864C693.373 55.864 694.109 55.64 694.637 55.192C695.165 54.728 695.429 54.136 695.429 53.416C695.429 52.856 695.261 52.4 694.925 52.048C694.605 51.696 694.197 51.424 693.701 51.232C693.221 51.04 692.549 50.832 691.685 50.608C690.597 50.32 689.709 50.032 689.021 49.744C688.349 49.44 687.773 48.976 687.293 48.352C686.813 47.728 686.573 46.896 686.573 45.856C686.573 44.896 686.813 44.056 687.293 43.336C687.773 42.616 688.445 42.064 689.309 41.68C690.173 41.296 691.173 41.104 692.309 41.104C693.925 41.104 695.245 41.512 696.269 42.328C697.309 43.128 697.885 44.232 697.997 45.64H694.973C694.925 45.032 694.637 44.512 694.109 44.08C693.581 43.648 692.885 43.432 692.021 43.432C691.237 43.432 690.597 43.632 690.101 44.032C689.605 44.432 689.357 45.008 689.357 45.76C689.357 46.272 689.509 46.696 689.813 47.032C690.133 47.352 690.533 47.608 691.013 47.8C691.493 47.992 692.149 48.2 692.981 48.424C694.085 48.728 694.981 49.032 695.669 49.336C696.373 49.64 696.965 50.112 697.445 50.752C697.941 51.376 698.189 52.216 698.189 53.272C698.189 54.12 697.957 54.92 697.493 55.672C697.045 56.424 696.381 57.032 695.501 57.496C694.637 57.944 693.613 58.168 692.429 58.168ZM700.505 51.376C700.505 50.016 700.777 48.824 701.321 47.8C701.881 46.76 702.649 45.96 703.625 45.4C704.601 44.84 705.721 44.56 706.985 44.56C708.585 44.56 709.905 44.944 710.945 45.712C712.001 46.464 712.713 47.544 713.081 48.952H710.129C709.889 48.296 709.505 47.784 708.977 47.416C708.449 47.048 707.785 46.864 706.985 46.864C705.865 46.864 704.969 47.264 704.297 48.064C703.641 48.848 703.313 49.952 703.313 51.376C703.313 52.8 703.641 53.912 704.297 54.712C704.969 55.512 705.865 55.912 706.985 55.912C708.569 55.912 709.617 55.216 710.129 53.824H713.081C712.697 55.168 711.977 56.24 710.921 57.04C709.865 57.824 708.553 58.216 706.985 58.216C705.721 58.216 704.601 57.936 703.625 57.376C702.649 56.8 701.881 56 701.321 54.976C700.777 53.936 700.505 52.736 700.505 51.376ZM718.544 46.696C718.944 46.024 719.472 45.504 720.128 45.136C720.8 44.752 721.592 44.56 722.504 44.56V47.392H721.808C720.736 47.392 719.92 47.664 719.36 48.208C718.816 48.752 718.544 49.696 718.544 51.04V58H715.808V44.776H718.544V46.696ZM737.139 51.064C737.139 51.56 737.107 52.008 737.043 52.408H726.939C727.019 53.464 727.411 54.312 728.115 54.952C728.819 55.592 729.683 55.912 730.707 55.912C732.179 55.912 733.219 55.296 733.827 54.064H736.779C736.379 55.28 735.651 56.28 734.595 57.064C733.555 57.832 732.259 58.216 730.707 58.216C729.443 58.216 728.307 57.936 727.299 57.376C726.307 56.8 725.523 56 724.947 54.976C724.387 53.936 724.107 52.736 724.107 51.376C724.107 50.016 724.379 48.824 724.923 47.8C725.483 46.76 726.259 45.96 727.251 45.4C728.259 44.84 729.411 44.56 730.707 44.56C731.955 44.56 733.067 44.832 734.043 45.376C735.019 45.92 735.779 46.688 736.323 47.68C736.867 48.656 737.139 49.784 737.139 51.064ZM734.283 50.2C734.267 49.192 733.907 48.384 733.203 47.776C732.499 47.168 731.627 46.864 730.587 46.864C729.643 46.864 728.835 47.168 728.163 47.776C727.491 48.368 727.091 49.176 726.963 50.2H734.283ZM751.951 51.064C751.951 51.56 751.919 52.008 751.855 52.408H741.751C741.831 53.464 742.223 54.312 742.927 54.952C743.631 55.592 744.495 55.912 745.519 55.912C746.991 55.912 748.031 55.296 748.639 54.064H751.591C751.191 55.28 750.463 56.28 749.407 57.064C748.367 57.832 747.071 58.216 745.519 58.216C744.255 58.216 743.119 57.936 742.111 57.376C741.119 56.8 740.335 56 739.759 54.976C739.199 53.936 738.919 52.736 738.919 51.376C738.919 50.016 739.191 48.824 739.735 47.8C740.295 46.76 741.071 45.96 742.063 45.4C743.071 44.84 744.223 44.56 745.519 44.56C746.767 44.56 747.879 44.832 748.855 45.376C749.831 45.92 750.591 46.688 751.135 47.68C751.679 48.656 751.951 49.784 751.951 51.064ZM749.095 50.2C749.079 49.192 748.719 48.384 748.015 47.776C747.311 47.168 746.439 46.864 745.399 46.864C744.455 46.864 743.647 47.168 742.975 47.776C742.303 48.368 741.903 49.176 741.775 50.2H749.095ZM761.316 44.56C762.356 44.56 763.284 44.776 764.1 45.208C764.932 45.64 765.58 46.28 766.044 47.128C766.508 47.976 766.74 49 766.74 50.2V58H764.028V50.608C764.028 49.424 763.732 48.52 763.14 47.896C762.548 47.256 761.74 46.936 760.716 46.936C759.692 46.936 758.876 47.256 758.268 47.896C757.676 48.52 757.38 49.424 757.38 50.608V58H754.644V44.776H757.38V46.288C757.828 45.744 758.396 45.32 759.084 45.016C759.788 44.712 760.532 44.56 761.316 44.56ZM775.03 58.216C773.99 58.216 773.054 58.032 772.222 57.664C771.406 57.28 770.758 56.768 770.278 56.128C769.798 55.472 769.542 54.744 769.51 53.944H772.342C772.39 54.504 772.654 54.976 773.134 55.36C773.63 55.728 774.246 55.912 774.982 55.912C775.75 55.912 776.342 55.768 776.758 55.48C777.19 55.176 777.406 54.792 777.406 54.328C777.406 53.832 777.166 53.464 776.686 53.224C776.222 52.984 775.478 52.72 774.454 52.432C773.462 52.16 772.654 51.896 772.03 51.64C771.406 51.384 770.862 50.992 770.398 50.464C769.95 49.936 769.726 49.24 769.726 48.376C769.726 47.672 769.934 47.032 770.35 46.456C770.766 45.864 771.358 45.4 772.126 45.064C772.91 44.728 773.806 44.56 774.814 44.56C776.318 44.56 777.526 44.944 778.438 45.712C779.366 46.464 779.862 47.496 779.926 48.808H777.19C777.142 48.216 776.902 47.744 776.47 47.392C776.038 47.04 775.454 46.864 774.718 46.864C773.998 46.864 773.446 47 773.062 47.272C772.678 47.544 772.486 47.904 772.486 48.352C772.486 48.704 772.614 49 772.87 49.24C773.126 49.48 773.438 49.672 773.806 49.816C774.174 49.944 774.718 50.112 775.438 50.32C776.398 50.576 777.182 50.84 777.79 51.112C778.414 51.368 778.95 51.752 779.398 52.264C779.846 52.776 780.078 53.456 780.094 54.304C780.094 55.056 779.886 55.728 779.47 56.32C779.054 56.912 778.462 57.376 777.694 57.712C776.942 58.048 776.054 58.216 775.03 58.216ZM786.05 54.712L783.146 61.336H781.37L783.074 54.712H786.05ZM797.387 41.32V51.952C797.387 53.216 797.715 54.168 798.371 54.808C799.043 55.448 799.971 55.768 801.155 55.768C802.355 55.768 803.283 55.448 803.939 54.808C804.611 54.168 804.947 53.216 804.947 51.952V41.32H807.683V51.904C807.683 53.264 807.387 54.416 806.795 55.36C806.203 56.304 805.411 57.008 804.419 57.472C803.427 57.936 802.331 58.168 801.131 58.168C799.931 58.168 798.835 57.936 797.843 57.472C796.867 57.008 796.091 56.304 795.515 55.36C794.939 54.416 794.651 53.264 794.651 51.904V41.32H797.387ZM818.901 49.672L824.085 58H821.013L817.245 51.952L813.717 58H810.669L815.853 49.672L810.645 41.32H813.717L817.509 47.416L821.061 41.32H824.109L818.901 49.672ZM843.139 41.32V43.552H836.059V48.472H841.579V50.704H836.059V58H833.323V41.32H843.139ZM848.411 40.24V58H845.675V40.24H848.411ZM857.739 58.216C856.491 58.216 855.363 57.936 854.355 57.376C853.347 56.8 852.555 56 851.979 54.976C851.403 53.936 851.115 52.736 851.115 51.376C851.115 50.032 851.411 48.84 852.003 47.8C852.595 46.76 853.403 45.96 854.427 45.4C855.451 44.84 856.595 44.56 857.859 44.56C859.123 44.56 860.267 44.84 861.291 45.4C862.315 45.96 863.123 46.76 863.715 47.8C864.307 48.84 864.603 50.032 864.603 51.376C864.603 52.72 864.299 53.912 863.691 54.952C863.083 55.992 862.251 56.8 861.195 57.376C860.155 57.936 859.003 58.216 857.739 58.216ZM857.739 55.84C858.443 55.84 859.099 55.672 859.707 55.336C860.331 55 860.835 54.496 861.219 53.824C861.603 53.152 861.795 52.336 861.795 51.376C861.795 50.416 861.611 49.608 861.243 48.952C860.875 48.28 860.387 47.776 859.779 47.44C859.171 47.104 858.515 46.936 857.811 46.936C857.107 46.936 856.451 47.104 855.843 47.44C855.251 47.776 854.779 48.28 854.427 48.952C854.075 49.608 853.899 50.416 853.899 51.376C853.899 52.8 854.259 53.904 854.979 54.688C855.715 55.456 856.635 55.84 857.739 55.84ZM885.068 44.776L880.964 58H878.084L875.42 48.232L872.756 58H869.876L865.748 44.776H868.532L871.292 55.408L874.1 44.776H876.956L879.644 55.36L882.38 44.776H885.068ZM906.235 58L904.171 55.936C903.371 56.736 902.499 57.336 901.555 57.736C900.611 58.12 899.555 58.312 898.387 58.312C897.203 58.312 896.155 58.104 895.243 57.688C894.331 57.272 893.627 56.68 893.131 55.912C892.635 55.128 892.387 54.224 892.387 53.2C892.387 52.048 892.715 51.024 893.371 50.128C894.027 49.216 895.003 48.496 896.299 47.968C895.835 47.408 895.507 46.888 895.315 46.408C895.123 45.912 895.027 45.368 895.027 44.776C895.027 44.04 895.211 43.384 895.579 42.808C895.963 42.232 896.507 41.776 897.211 41.44C897.915 41.104 898.731 40.936 899.659 40.936C900.603 40.936 901.403 41.12 902.059 41.488C902.731 41.84 903.227 42.328 903.547 42.952C903.883 43.576 904.019 44.272 903.955 45.04H901.219C901.235 44.448 901.091 43.992 900.787 43.672C900.483 43.336 900.067 43.168 899.539 43.168C899.011 43.168 898.579 43.328 898.243 43.648C897.923 43.952 897.763 44.328 897.763 44.776C897.763 45.208 897.883 45.64 898.123 46.072C898.379 46.488 898.819 47.032 899.443 47.704L903.859 52.096L905.563 49.288H908.515L906.355 52.984L905.755 53.968L909.811 58H906.235ZM898.387 55.984C899.891 55.984 901.219 55.368 902.371 54.136L897.955 49.696C896.067 50.448 895.123 51.584 895.123 53.104C895.123 53.92 895.427 54.608 896.035 55.168C896.643 55.712 897.427 55.984 898.387 55.984ZM929.503 46.288C929.503 47.136 929.303 47.936 928.903 48.688C928.503 49.44 927.863 50.056 926.983 50.536C926.103 51 924.975 51.232 923.599 51.232H920.575V58H917.839V41.32H923.599C924.879 41.32 925.959 41.544 926.839 41.992C927.735 42.424 928.399 43.016 928.831 43.768C929.279 44.52 929.503 45.36 929.503 46.288ZM923.599 49C924.639 49 925.415 48.768 925.927 48.304C926.439 47.824 926.695 47.152 926.695 46.288C926.695 44.464 925.663 43.552 923.599 43.552H920.575V49H923.599ZM934.849 46.696C935.249 46.024 935.777 45.504 936.433 45.136C937.105 44.752 937.897 44.56 938.809 44.56V47.392H938.113C937.041 47.392 936.225 47.664 935.665 48.208C935.121 48.752 934.849 49.696 934.849 51.04V58H932.113V44.776H934.849V46.696ZM947.059 58.216C945.811 58.216 944.683 57.936 943.675 57.376C942.667 56.8 941.875 56 941.299 54.976C940.723 53.936 940.435 52.736 940.435 51.376C940.435 50.032 940.731 48.84 941.323 47.8C941.915 46.76 942.723 45.96 943.747 45.4C944.771 44.84 945.915 44.56 947.179 44.56C948.443 44.56 949.587 44.84 950.611 45.4C951.635 45.96 952.443 46.76 953.035 47.8C953.627 48.84 953.923 50.032 953.923 51.376C953.923 52.72 953.619 53.912 953.011 54.952C952.403 55.992 951.571 56.8 950.515 57.376C949.475 57.936 948.323 58.216 947.059 58.216ZM947.059 55.84C947.763 55.84 948.419 55.672 949.027 55.336C949.651 55 950.155 54.496 950.539 53.824C950.923 53.152 951.115 52.336 951.115 51.376C951.115 50.416 950.931 49.608 950.563 48.952C950.195 48.28 949.707 47.776 949.099 47.44C948.491 47.104 947.835 46.936 947.131 46.936C946.427 46.936 945.771 47.104 945.163 47.44C944.571 47.776 944.099 48.28 943.747 48.952C943.395 49.608 943.219 50.416 943.219 51.376C943.219 52.8 943.579 53.904 944.299 54.688C945.035 55.456 945.955 55.84 947.059 55.84ZM959.82 47.008V54.328C959.82 54.824 959.932 55.184 960.156 55.408C960.396 55.616 960.796 55.72 961.356 55.72H963.036V58H960.876C959.644 58 958.7 57.712 958.044 57.136C957.388 56.56 957.06 55.624 957.06 54.328V47.008H955.5V44.776H957.06V41.488H959.82V44.776H963.036V47.008H959.82ZM971.294 58.216C970.046 58.216 968.918 57.936 967.91 57.376C966.902 56.8 966.11 56 965.534 54.976C964.958 53.936 964.67 52.736 964.67 51.376C964.67 50.032 964.966 48.84 965.558 47.8C966.15 46.76 966.958 45.96 967.982 45.4C969.006 44.84 970.15 44.56 971.414 44.56C972.678 44.56 973.822 44.84 974.846 45.4C975.87 45.96 976.678 46.76 977.27 47.8C977.862 48.84 978.158 50.032 978.158 51.376C978.158 52.72 977.854 53.912 977.246 54.952C976.638 55.992 975.806 56.8 974.75 57.376C973.71 57.936 972.558 58.216 971.294 58.216ZM971.294 55.84C971.998 55.84 972.654 55.672 973.262 55.336C973.886 55 974.39 54.496 974.774 53.824C975.158 53.152 975.35 52.336 975.35 51.376C975.35 50.416 975.166 49.608 974.798 48.952C974.43 48.28 973.942 47.776 973.334 47.44C972.726 47.104 972.07 46.936 971.366 46.936C970.662 46.936 970.006 47.104 969.398 47.44C968.806 47.776 968.334 48.28 967.982 48.952C967.63 49.608 967.454 50.416 967.454 51.376C967.454 52.8 967.814 53.904 968.534 54.688C969.27 55.456 970.19 55.84 971.294 55.84ZM984.055 47.008V54.328C984.055 54.824 984.167 55.184 984.391 55.408C984.631 55.616 985.031 55.72 985.591 55.72H987.271V58H985.111C983.879 58 982.935 57.712 982.279 57.136C981.623 56.56 981.295 55.624 981.295 54.328V47.008H979.735V44.776H981.295V41.488H984.055V44.776H987.271V47.008H984.055ZM1001.7 44.776L993.584 64.216H990.752L993.44 57.784L988.232 44.776H991.28L995 54.856L998.864 44.776H1001.7ZM1006.5 46.72C1006.96 46.112 1007.59 45.6 1008.39 45.184C1009.19 44.768 1010.1 44.56 1011.1 44.56C1012.26 44.56 1013.3 44.848 1014.25 45.424C1015.21 45.984 1015.96 46.776 1016.5 47.8C1017.05 48.824 1017.32 50 1017.32 51.328C1017.32 52.656 1017.05 53.848 1016.5 54.904C1015.96 55.944 1015.21 56.76 1014.25 57.352C1013.3 57.928 1012.26 58.216 1011.1 58.216C1010.1 58.216 1009.2 58.016 1008.42 57.616C1007.63 57.2 1006.99 56.688 1006.5 56.08V64.288H1003.76V44.776H1006.5V46.72ZM1014.54 51.328C1014.54 50.416 1014.34 49.632 1013.96 48.976C1013.59 48.304 1013.1 47.8 1012.47 47.464C1011.86 47.112 1011.21 46.936 1010.5 46.936C1009.82 46.936 1009.16 47.112 1008.54 47.464C1007.93 47.816 1007.43 48.328 1007.05 49C1006.68 49.672 1006.5 50.464 1006.5 51.376C1006.5 52.288 1006.68 53.088 1007.05 53.776C1007.43 54.448 1007.93 54.96 1008.54 55.312C1009.16 55.664 1009.82 55.84 1010.5 55.84C1011.21 55.84 1011.86 55.664 1012.47 55.312C1013.1 54.944 1013.59 54.416 1013.96 53.728C1014.34 53.04 1014.54 52.24 1014.54 51.328ZM1032.15 51.064C1032.15 51.56 1032.11 52.008 1032.05 52.408H1021.95C1022.03 53.464 1022.42 54.312 1023.12 54.952C1023.83 55.592 1024.69 55.912 1025.71 55.912C1027.19 55.912 1028.23 55.296 1028.83 54.064H1031.79C1031.39 55.28 1030.66 56.28 1029.6 57.064C1028.56 57.832 1027.27 58.216 1025.71 58.216C1024.45 58.216 1023.31 57.936 1022.31 57.376C1021.31 56.8 1020.53 56 1019.95 54.976C1019.39 53.936 1019.11 52.736 1019.11 51.376C1019.11 50.016 1019.39 48.824 1019.93 47.8C1020.49 46.76 1021.27 45.96 1022.26 45.4C1023.27 44.84 1024.42 44.56 1025.71 44.56C1026.96 44.56 1028.07 44.832 1029.05 45.376C1030.03 45.92 1030.79 46.688 1031.33 47.68C1031.87 48.656 1032.15 49.784 1032.15 51.064ZM1029.29 50.2C1029.27 49.192 1028.91 48.384 1028.21 47.776C1027.51 47.168 1026.63 46.864 1025.59 46.864C1024.65 46.864 1023.84 47.168 1023.17 47.776C1022.5 48.368 1022.1 49.176 1021.97 50.2H1029.29Z" fill="#282938"/>
</svg>
