<svg width="952" height="85" viewBox="0 0 952 85" fill="none" xmlns="http://www.w3.org/2000/svg">
<path d="M10.992 51L4.536 43.536V51H1.8V34.32H4.536V41.928L11.016 34.32H14.448L7.2 42.672L14.568 51H10.992ZM29.1075 44.064C29.1075 44.56 29.0755 45.008 29.0115 45.408H18.9075C18.9875 46.464 19.3795 47.312 20.0835 47.952C20.7875 48.592 21.6515 48.912 22.6755 48.912C24.1475 48.912 25.1875 48.296 25.7955 47.064H28.7475C28.3475 48.28 27.6195 49.28 26.5635 50.064C25.5235 50.832 24.2275 51.216 22.6755 51.216C21.4115 51.216 20.2755 50.936 19.2675 50.376C18.2755 49.8 17.4915 49 16.9155 47.976C16.3555 46.936 16.0755 45.736 16.0755 44.376C16.0755 43.016 16.3475 41.824 16.8915 40.8C17.4515 39.76 18.2275 38.96 19.2195 38.4C20.2275 37.84 21.3795 37.56 22.6755 37.56C23.9235 37.56 25.0355 37.832 26.0115 38.376C26.9875 38.92 27.7475 39.688 28.2915 40.68C28.8355 41.656 29.1075 42.784 29.1075 44.064ZM26.2515 43.2C26.2355 42.192 25.8755 41.384 25.1715 40.776C24.4675 40.168 23.5955 39.864 22.5555 39.864C21.6115 39.864 20.8035 40.168 20.1315 40.776C19.4595 41.368 19.0595 42.176 18.9315 43.2H26.2515ZM43.704 37.776L35.592 57.216H32.76L35.448 50.784L30.24 37.776H33.288L37.008 47.856L40.872 37.776H43.704ZM63.5288 37.776L59.4248 51H56.5448L53.8808 41.232L51.2168 51H48.3368L44.2088 37.776H46.9928L49.7528 48.408L52.5608 37.776H55.4168L58.1048 48.36L60.8408 37.776H63.5288ZM71.3094 51.216C70.0614 51.216 68.9334 50.936 67.9254 50.376C66.9174 49.8 66.1254 49 65.5494 47.976C64.9734 46.936 64.6854 45.736 64.6854 44.376C64.6854 43.032 64.9814 41.84 65.5734 40.8C66.1654 39.76 66.9734 38.96 67.9974 38.4C69.0214 37.84 70.1654 37.56 71.4294 37.56C72.6934 37.56 73.8374 37.84 74.8614 38.4C75.8854 38.96 76.6934 39.76 77.2854 40.8C77.8774 41.84 78.1734 43.032 78.1734 44.376C78.1734 45.72 77.8694 46.912 77.2614 47.952C76.6534 48.992 75.8214 49.8 74.7654 50.376C73.7254 50.936 72.5734 51.216 71.3094 51.216ZM71.3094 48.84C72.0134 48.84 72.6694 48.672 73.2774 48.336C73.9014 48 74.4054 47.496 74.7894 46.824C75.1734 46.152 75.3654 45.336 75.3654 44.376C75.3654 43.416 75.1814 42.608 74.8134 41.952C74.4454 41.28 73.9574 40.776 73.3494 40.44C72.7414 40.104 72.0854 39.936 71.3814 39.936C70.6774 39.936 70.0214 40.104 69.4134 40.44C68.8214 40.776 68.3494 41.28 67.9974 41.952C67.6454 42.608 67.4694 43.416 67.4694 44.376C67.4694 45.8 67.8294 46.904 68.5494 47.688C69.2854 48.456 70.2054 48.84 71.3094 48.84ZM83.6141 39.696C84.0141 39.024 84.5421 38.504 85.1981 38.136C85.8701 37.752 86.6621 37.56 87.5741 37.56V40.392H86.8781C85.8061 40.392 84.9901 40.664 84.4301 41.208C83.8861 41.752 83.6141 42.696 83.6141 44.04V51H80.8781V37.776H83.6141V39.696ZM89.1771 44.328C89.1771 43 89.4491 41.824 89.9931 40.8C90.5531 39.776 91.3051 38.984 92.2491 38.424C93.2091 37.848 94.2731 37.56 95.4411 37.56C96.3051 37.56 97.1531 37.752 97.9851 38.136C98.8331 38.504 99.5051 39 100.001 39.624V33.24H102.761V51H100.001V49.008C99.5531 49.648 98.9291 50.176 98.1291 50.592C97.3451 51.008 96.4411 51.216 95.4171 51.216C94.2651 51.216 93.2091 50.928 92.2491 50.352C91.3051 49.76 90.5531 48.944 89.9931 47.904C89.4491 46.848 89.1771 45.656 89.1771 44.328ZM100.001 44.376C100.001 43.464 99.8091 42.672 99.4251 42C99.0571 41.328 98.5691 40.816 97.9611 40.464C97.3531 40.112 96.6971 39.936 95.9931 39.936C95.2891 39.936 94.6331 40.112 94.0251 40.464C93.4171 40.8 92.9211 41.304 92.5371 41.976C92.1691 42.632 91.9851 43.416 91.9851 44.328C91.9851 45.24 92.1691 46.04 92.5371 46.728C92.9211 47.416 93.4171 47.944 94.0251 48.312C94.6491 48.664 95.3051 48.84 95.9931 48.84C96.6971 48.84 97.3531 48.664 97.9611 48.312C98.5691 47.96 99.0571 47.448 99.4251 46.776C99.8091 46.088 100.001 45.288 100.001 44.376ZM111.155 51.216C110.115 51.216 109.179 51.032 108.347 50.664C107.531 50.28 106.883 49.768 106.403 49.128C105.923 48.472 105.667 47.744 105.635 46.944H108.467C108.515 47.504 108.779 47.976 109.259 48.36C109.755 48.728 110.371 48.912 111.107 48.912C111.875 48.912 112.467 48.768 112.883 48.48C113.315 48.176 113.531 47.792 113.531 47.328C113.531 46.832 113.291 46.464 112.811 46.224C112.347 45.984 111.603 45.72 110.579 45.432C109.587 45.16 108.779 44.896 108.155 44.64C107.531 44.384 106.987 43.992 106.523 43.464C106.075 42.936 105.851 42.24 105.851 41.376C105.851 40.672 106.059 40.032 106.475 39.456C106.891 38.864 107.483 38.4 108.251 38.064C109.035 37.728 109.931 37.56 110.939 37.56C112.443 37.56 113.651 37.944 114.563 38.712C115.491 39.464 115.987 40.496 116.051 41.808H113.315C113.267 41.216 113.027 40.744 112.595 40.392C112.163 40.04 111.579 39.864 110.843 39.864C110.123 39.864 109.571 40 109.187 40.272C108.803 40.544 108.611 40.904 108.611 41.352C108.611 41.704 108.739 42 108.995 42.24C109.251 42.48 109.563 42.672 109.931 42.816C110.299 42.944 110.843 43.112 111.563 43.32C112.523 43.576 113.307 43.84 113.915 44.112C114.539 44.368 115.075 44.752 115.523 45.264C115.971 45.776 116.203 46.456 116.219 47.304C116.219 48.056 116.011 48.728 115.595 49.32C115.179 49.912 114.587 50.376 113.819 50.712C113.067 51.048 112.179 51.216 111.155 51.216Z" fill="#2405F2"/>
<path opacity="0.7" d="M176.436 36.49C177.768 36.49 178.932 36.748 179.928 37.264C180.936 37.768 181.71 38.5 182.25 39.46C182.802 40.408 183.078 41.518 183.078 42.79C183.078 44.062 182.802 45.166 182.25 46.102C181.71 47.038 180.936 47.758 179.928 48.262C178.932 48.754 177.768 49 176.436 49H172.35V36.49H176.436ZM176.436 47.326C177.9 47.326 179.022 46.93 179.802 46.138C180.582 45.346 180.972 44.23 180.972 42.79C180.972 41.338 180.582 40.204 179.802 39.388C179.022 38.572 177.9 38.164 176.436 38.164H174.402V47.326H176.436ZM194.202 43.798C194.202 44.17 194.178 44.506 194.13 44.806H186.552C186.612 45.598 186.906 46.234 187.434 46.714C187.962 47.194 188.61 47.434 189.378 47.434C190.482 47.434 191.262 46.972 191.718 46.048H193.932C193.632 46.96 193.086 47.71 192.294 48.298C191.514 48.874 190.542 49.162 189.378 49.162C188.43 49.162 187.578 48.952 186.822 48.532C186.078 48.1 185.49 47.5 185.058 46.732C184.638 45.952 184.428 45.052 184.428 44.032C184.428 43.012 184.632 42.118 185.04 41.35C185.46 40.57 186.042 39.97 186.786 39.55C187.542 39.13 188.406 38.92 189.378 38.92C190.314 38.92 191.148 39.124 191.88 39.532C192.612 39.94 193.182 40.516 193.59 41.26C193.998 41.992 194.202 42.838 194.202 43.798ZM192.06 43.15C192.048 42.394 191.778 41.788 191.25 41.332C190.722 40.876 190.068 40.648 189.288 40.648C188.58 40.648 187.974 40.876 187.47 41.332C186.966 41.776 186.666 42.382 186.57 43.15H192.06ZM199.821 49.162C199.041 49.162 198.339 49.024 197.715 48.748C197.103 48.46 196.617 48.076 196.257 47.596C195.897 47.104 195.705 46.558 195.681 45.958H197.805C197.841 46.378 198.039 46.732 198.399 47.02C198.771 47.296 199.233 47.434 199.785 47.434C200.361 47.434 200.805 47.326 201.117 47.11C201.441 46.882 201.603 46.594 201.603 46.246C201.603 45.874 201.423 45.598 201.063 45.418C200.715 45.238 200.157 45.04 199.389 44.824C198.645 44.62 198.039 44.422 197.571 44.23C197.103 44.038 196.695 43.744 196.347 43.348C196.011 42.952 195.843 42.43 195.843 41.782C195.843 41.254 195.999 40.774 196.311 40.342C196.623 39.898 197.067 39.55 197.643 39.298C198.231 39.046 198.903 38.92 199.659 38.92C200.787 38.92 201.693 39.208 202.377 39.784C203.073 40.348 203.445 41.122 203.493 42.106H201.441C201.405 41.662 201.225 41.308 200.901 41.044C200.577 40.78 200.139 40.648 199.587 40.648C199.047 40.648 198.633 40.75 198.345 40.954C198.057 41.158 197.913 41.428 197.913 41.764C197.913 42.028 198.009 42.25 198.201 42.43C198.393 42.61 198.627 42.754 198.903 42.862C199.179 42.958 199.587 43.084 200.127 43.24C200.847 43.432 201.435 43.63 201.891 43.834C202.359 44.026 202.761 44.314 203.097 44.698C203.433 45.082 203.607 45.592 203.619 46.228C203.619 46.792 203.463 47.296 203.151 47.74C202.839 48.184 202.395 48.532 201.819 48.784C201.255 49.036 200.589 49.162 199.821 49.162ZM206.88 37.768C206.508 37.768 206.196 37.642 205.944 37.39C205.692 37.138 205.566 36.826 205.566 36.454C205.566 36.082 205.692 35.77 205.944 35.518C206.196 35.266 206.508 35.14 206.88 35.14C207.24 35.14 207.546 35.266 207.798 35.518C208.05 35.77 208.176 36.082 208.176 36.454C208.176 36.826 208.05 37.138 207.798 37.39C207.546 37.642 207.24 37.768 206.88 37.768ZM207.888 39.082V49H205.836V39.082H207.888ZM214.578 38.92C215.346 38.92 216.024 39.076 216.612 39.388C217.212 39.688 217.68 40.066 218.016 40.522V39.082H220.086V49.162C220.086 50.074 219.894 50.884 219.51 51.592C219.126 52.312 218.568 52.876 217.836 53.284C217.116 53.692 216.252 53.896 215.244 53.896C213.9 53.896 212.784 53.578 211.896 52.942C211.008 52.318 210.504 51.466 210.384 50.386H212.418C212.574 50.902 212.904 51.316 213.408 51.628C213.924 51.952 214.536 52.114 215.244 52.114C216.072 52.114 216.738 51.862 217.242 51.358C217.758 50.854 218.016 50.122 218.016 49.162V47.506C217.668 47.974 217.194 48.37 216.594 48.694C216.006 49.006 215.334 49.162 214.578 49.162C213.714 49.162 212.922 48.946 212.202 48.514C211.494 48.07 210.93 47.458 210.51 46.678C210.102 45.886 209.898 44.992 209.898 43.996C209.898 43 210.102 42.118 210.51 41.35C210.93 40.582 211.494 39.988 212.202 39.568C212.922 39.136 213.714 38.92 214.578 38.92ZM218.016 44.032C218.016 43.348 217.872 42.754 217.584 42.25C217.308 41.746 216.942 41.362 216.486 41.098C216.03 40.834 215.538 40.702 215.01 40.702C214.482 40.702 213.99 40.834 213.534 41.098C213.078 41.35 212.706 41.728 212.418 42.232C212.142 42.724 212.004 43.312 212.004 43.996C212.004 44.68 212.142 45.28 212.418 45.796C212.706 46.312 213.078 46.708 213.534 46.984C214.002 47.248 214.494 47.38 215.01 47.38C215.538 47.38 216.03 47.248 216.486 46.984C216.942 46.72 217.308 46.336 217.584 45.832C217.872 45.316 218.016 44.716 218.016 44.032ZM227.786 38.92C228.566 38.92 229.262 39.082 229.874 39.406C230.498 39.73 230.984 40.21 231.332 40.846C231.68 41.482 231.854 42.25 231.854 43.15V49H229.82V43.456C229.82 42.568 229.598 41.89 229.154 41.422C228.71 40.942 228.104 40.702 227.336 40.702C226.568 40.702 225.956 40.942 225.5 41.422C225.056 41.89 224.834 42.568 224.834 43.456V49H222.782V39.082H224.834V40.216C225.17 39.808 225.596 39.49 226.112 39.262C226.64 39.034 227.198 38.92 227.786 38.92Z" fill="#282938"/>
<path opacity="0.7" d="M290.384 36.49V44.464C290.384 45.412 290.63 46.126 291.122 46.606C291.626 47.086 292.322 47.326 293.21 47.326C294.11 47.326 294.806 47.086 295.298 46.606C295.802 46.126 296.054 45.412 296.054 44.464V36.49H298.106V44.428C298.106 45.448 297.884 46.312 297.44 47.02C296.996 47.728 296.402 48.256 295.658 48.604C294.914 48.952 294.092 49.126 293.192 49.126C292.292 49.126 291.47 48.952 290.726 48.604C289.994 48.256 289.412 47.728 288.98 47.02C288.548 46.312 288.332 45.448 288.332 44.428V36.49H290.384ZM302.83 36.49V49H300.778V36.49H302.83ZM312.184 32.008L307.288 52.15H305.272L310.15 32.008H312.184ZM316.804 36.49V44.464C316.804 45.412 317.05 46.126 317.542 46.606C318.046 47.086 318.742 47.326 319.63 47.326C320.53 47.326 321.226 47.086 321.718 46.606C322.222 46.126 322.474 45.412 322.474 44.464V36.49H324.526V44.428C324.526 45.448 324.304 46.312 323.86 47.02C323.416 47.728 322.822 48.256 322.078 48.604C321.334 48.952 320.512 49.126 319.612 49.126C318.712 49.126 317.89 48.952 317.146 48.604C316.414 48.256 315.832 47.728 315.4 47.02C314.968 46.312 314.752 45.448 314.752 44.428V36.49H316.804ZM332.94 42.754L336.828 49H334.524L331.698 44.464L329.052 49H326.766L330.654 42.754L326.748 36.49H329.052L331.896 41.062L334.56 36.49H336.846L332.94 42.754Z" fill="#282938"/>
<path opacity="0.7" d="M408.64 36.49L404.932 49H402.61L399.982 39.532L397.192 49L394.888 49.018L391.342 36.49H393.52L396.112 46.678L398.92 36.49H401.224L403.834 46.624L406.444 36.49H408.64ZM411.376 37.768C411.004 37.768 410.692 37.642 410.44 37.39C410.188 37.138 410.062 36.826 410.062 36.454C410.062 36.082 410.188 35.77 410.44 35.518C410.692 35.266 411.004 35.14 411.376 35.14C411.736 35.14 412.042 35.266 412.294 35.518C412.546 35.77 412.672 36.082 412.672 36.454C412.672 36.826 412.546 37.138 412.294 37.39C412.042 37.642 411.736 37.768 411.376 37.768ZM412.384 39.082V49H410.332V39.082H412.384ZM417.131 40.522C417.431 40.018 417.827 39.628 418.319 39.352C418.823 39.064 419.417 38.92 420.101 38.92V41.044H419.579C418.775 41.044 418.163 41.248 417.743 41.656C417.335 42.064 417.131 42.772 417.131 43.78V49H415.079V39.082H417.131V40.522ZM431.077 43.798C431.077 44.17 431.053 44.506 431.005 44.806H423.427C423.487 45.598 423.781 46.234 424.309 46.714C424.837 47.194 425.485 47.434 426.253 47.434C427.357 47.434 428.137 46.972 428.593 46.048H430.807C430.507 46.96 429.961 47.71 429.169 48.298C428.389 48.874 427.417 49.162 426.253 49.162C425.305 49.162 424.453 48.952 423.697 48.532C422.953 48.1 422.365 47.5 421.933 46.732C421.513 45.952 421.303 45.052 421.303 44.032C421.303 43.012 421.507 42.118 421.915 41.35C422.335 40.57 422.917 39.97 423.661 39.55C424.417 39.13 425.281 38.92 426.253 38.92C427.189 38.92 428.023 39.124 428.755 39.532C429.487 39.94 430.057 40.516 430.465 41.26C430.873 41.992 431.077 42.838 431.077 43.798ZM428.935 43.15C428.923 42.394 428.653 41.788 428.125 41.332C427.597 40.876 426.943 40.648 426.163 40.648C425.455 40.648 424.849 40.876 424.345 41.332C423.841 41.776 423.541 42.382 423.445 43.15H428.935ZM437.254 40.756H435.418V49H433.348V40.756H432.178V39.082H433.348V38.38C433.348 37.24 433.648 36.412 434.248 35.896C434.86 35.368 435.814 35.104 437.11 35.104V36.814C436.486 36.814 436.048 36.934 435.796 37.174C435.544 37.402 435.418 37.804 435.418 38.38V39.082H437.254V40.756ZM441.125 40.522C441.425 40.018 441.821 39.628 442.313 39.352C442.817 39.064 443.411 38.92 444.095 38.92V41.044H443.573C442.769 41.044 442.157 41.248 441.737 41.656C441.329 42.064 441.125 42.772 441.125 43.78V49H439.073V39.082H441.125V40.522ZM445.297 43.996C445.297 43 445.501 42.118 445.909 41.35C446.329 40.582 446.893 39.988 447.601 39.568C448.321 39.136 449.113 38.92 449.977 38.92C450.757 38.92 451.435 39.076 452.011 39.388C452.599 39.688 453.067 40.066 453.415 40.522V39.082H455.485V49H453.415V47.524C453.067 47.992 452.593 48.382 451.993 48.694C451.393 49.006 450.709 49.162 449.941 49.162C449.089 49.162 448.309 48.946 447.601 48.514C446.893 48.07 446.329 47.458 445.909 46.678C445.501 45.886 445.297 44.992 445.297 43.996ZM453.415 44.032C453.415 43.348 453.271 42.754 452.983 42.25C452.707 41.746 452.341 41.362 451.885 41.098C451.429 40.834 450.937 40.702 450.409 40.702C449.881 40.702 449.389 40.834 448.933 41.098C448.477 41.35 448.105 41.728 447.817 42.232C447.541 42.724 447.403 43.312 447.403 43.996C447.403 44.68 447.541 45.28 447.817 45.796C448.105 46.312 448.477 46.708 448.933 46.984C449.401 47.248 449.893 47.38 450.409 47.38C450.937 47.38 451.429 47.248 451.885 46.984C452.341 46.72 452.707 46.336 452.983 45.832C453.271 45.316 453.415 44.716 453.415 44.032ZM470.186 38.92C470.966 38.92 471.662 39.082 472.274 39.406C472.898 39.73 473.384 40.21 473.732 40.846C474.092 41.482 474.272 42.25 474.272 43.15V49H472.238V43.456C472.238 42.568 472.016 41.89 471.572 41.422C471.128 40.942 470.522 40.702 469.754 40.702C468.986 40.702 468.374 40.942 467.918 41.422C467.474 41.89 467.252 42.568 467.252 43.456V49H465.218V43.456C465.218 42.568 464.996 41.89 464.552 41.422C464.108 40.942 463.502 40.702 462.734 40.702C461.966 40.702 461.354 40.942 460.898 41.422C460.454 41.89 460.232 42.568 460.232 43.456V49H458.18V39.082H460.232V40.216C460.568 39.808 460.994 39.49 461.51 39.262C462.026 39.034 462.578 38.92 463.166 38.92C463.958 38.92 464.666 39.088 465.29 39.424C465.914 39.76 466.394 40.246 466.73 40.882C467.03 40.282 467.498 39.808 468.134 39.46C468.77 39.1 469.454 38.92 470.186 38.92ZM477.927 37.768C477.555 37.768 477.243 37.642 476.991 37.39C476.739 37.138 476.613 36.826 476.613 36.454C476.613 36.082 476.739 35.77 476.991 35.518C477.243 35.266 477.555 35.14 477.927 35.14C478.287 35.14 478.593 35.266 478.845 35.518C479.097 35.77 479.223 36.082 479.223 36.454C479.223 36.826 479.097 37.138 478.845 37.39C478.593 37.642 478.287 37.768 477.927 37.768ZM478.935 39.082V49H476.883V39.082H478.935ZM486.633 38.92C487.413 38.92 488.109 39.082 488.721 39.406C489.345 39.73 489.831 40.21 490.179 40.846C490.527 41.482 490.701 42.25 490.701 43.15V49H488.667V43.456C488.667 42.568 488.445 41.89 488.001 41.422C487.557 40.942 486.951 40.702 486.183 40.702C485.415 40.702 484.803 40.942 484.347 41.422C483.903 41.89 483.681 42.568 483.681 43.456V49H481.629V39.082H483.681V40.216C484.017 39.808 484.443 39.49 484.959 39.262C485.487 39.034 486.045 38.92 486.633 38.92ZM497.315 38.92C498.083 38.92 498.761 39.076 499.349 39.388C499.949 39.688 500.417 40.066 500.753 40.522V39.082H502.823V49.162C502.823 50.074 502.631 50.884 502.247 51.592C501.863 52.312 501.305 52.876 500.573 53.284C499.853 53.692 498.989 53.896 497.981 53.896C496.637 53.896 495.521 53.578 494.633 52.942C493.745 52.318 493.241 51.466 493.121 50.386H495.155C495.311 50.902 495.641 51.316 496.145 51.628C496.661 51.952 497.273 52.114 497.981 52.114C498.809 52.114 499.475 51.862 499.979 51.358C500.495 50.854 500.753 50.122 500.753 49.162V47.506C500.405 47.974 499.931 48.37 499.331 48.694C498.743 49.006 498.071 49.162 497.315 49.162C496.451 49.162 495.659 48.946 494.939 48.514C494.231 48.07 493.667 47.458 493.247 46.678C492.839 45.886 492.635 44.992 492.635 43.996C492.635 43 492.839 42.118 493.247 41.35C493.667 40.582 494.231 39.988 494.939 39.568C495.659 39.136 496.451 38.92 497.315 38.92ZM500.753 44.032C500.753 43.348 500.609 42.754 500.321 42.25C500.045 41.746 499.679 41.362 499.223 41.098C498.767 40.834 498.275 40.702 497.747 40.702C497.219 40.702 496.727 40.834 496.271 41.098C495.815 41.35 495.443 41.728 495.155 42.232C494.879 42.724 494.741 43.312 494.741 43.996C494.741 44.68 494.879 45.28 495.155 45.796C495.443 46.312 495.815 46.708 496.271 46.984C496.739 47.248 497.231 47.38 497.747 47.38C498.275 47.38 498.767 47.248 499.223 46.984C499.679 46.72 500.045 46.336 500.321 45.832C500.609 45.316 500.753 44.716 500.753 44.032Z" fill="#282938"/>
<path opacity="0.7" d="M566.046 42.574C566.718 42.694 567.288 43.048 567.756 43.636C568.224 44.224 568.458 44.89 568.458 45.634C568.458 46.27 568.29 46.846 567.954 47.362C567.63 47.866 567.156 48.268 566.532 48.568C565.908 48.856 565.182 49 564.354 49H559.35V36.49H564.12C564.972 36.49 565.704 36.634 566.316 36.922C566.928 37.21 567.39 37.6 567.702 38.092C568.014 38.572 568.17 39.112 568.17 39.712C568.17 40.432 567.978 41.032 567.594 41.512C567.21 41.992 566.694 42.346 566.046 42.574ZM561.402 41.746H563.94C564.612 41.746 565.134 41.596 565.506 41.296C565.89 40.984 566.082 40.54 566.082 39.964C566.082 39.4 565.89 38.962 565.506 38.65C565.134 38.326 564.612 38.164 563.94 38.164H561.402V41.746ZM564.174 47.326C564.87 47.326 565.416 47.158 565.812 46.822C566.208 46.486 566.406 46.018 566.406 45.418C566.406 44.806 566.196 44.32 565.776 43.96C565.356 43.6 564.798 43.42 564.102 43.42H561.402V47.326H564.174ZM572.74 40.522C573.04 40.018 573.436 39.628 573.928 39.352C574.432 39.064 575.026 38.92 575.71 38.92V41.044H575.188C574.384 41.044 573.772 41.248 573.352 41.656C572.944 42.064 572.74 42.772 572.74 43.78V49H570.688V39.082H572.74V40.522ZM576.912 43.996C576.912 43 577.116 42.118 577.524 41.35C577.944 40.582 578.508 39.988 579.216 39.568C579.936 39.136 580.728 38.92 581.592 38.92C582.372 38.92 583.05 39.076 583.626 39.388C584.214 39.688 584.682 40.066 585.03 40.522V39.082H587.1V49H585.03V47.524C584.682 47.992 584.208 48.382 583.608 48.694C583.008 49.006 582.324 49.162 581.556 49.162C580.704 49.162 579.924 48.946 579.216 48.514C578.508 48.07 577.944 47.458 577.524 46.678C577.116 45.886 576.912 44.992 576.912 43.996ZM585.03 44.032C585.03 43.348 584.886 42.754 584.598 42.25C584.322 41.746 583.956 41.362 583.5 41.098C583.044 40.834 582.552 40.702 582.024 40.702C581.496 40.702 581.004 40.834 580.548 41.098C580.092 41.35 579.72 41.728 579.432 42.232C579.156 42.724 579.018 43.312 579.018 43.996C579.018 44.68 579.156 45.28 579.432 45.796C579.72 46.312 580.092 46.708 580.548 46.984C581.016 47.248 581.508 47.38 582.024 47.38C582.552 47.38 583.044 47.248 583.5 46.984C583.956 46.72 584.322 46.336 584.598 45.832C584.886 45.316 585.03 44.716 585.03 44.032ZM594.799 38.92C595.579 38.92 596.275 39.082 596.887 39.406C597.511 39.73 597.997 40.21 598.345 40.846C598.693 41.482 598.867 42.25 598.867 43.15V49H596.833V43.456C596.833 42.568 596.611 41.89 596.167 41.422C595.723 40.942 595.117 40.702 594.349 40.702C593.581 40.702 592.969 40.942 592.513 41.422C592.069 41.89 591.847 42.568 591.847 43.456V49H589.795V39.082H591.847V40.216C592.183 39.808 592.609 39.49 593.125 39.262C593.653 39.034 594.211 38.92 594.799 38.92ZM600.801 43.996C600.801 43 601.005 42.118 601.413 41.35C601.833 40.582 602.397 39.988 603.105 39.568C603.825 39.136 604.623 38.92 605.499 38.92C606.147 38.92 606.783 39.064 607.407 39.352C608.043 39.628 608.547 40 608.919 40.468V35.68H610.989V49H608.919V47.506C608.583 47.986 608.115 48.382 607.515 48.694C606.927 49.006 606.249 49.162 605.481 49.162C604.617 49.162 603.825 48.946 603.105 48.514C602.397 48.07 601.833 47.458 601.413 46.678C601.005 45.886 600.801 44.992 600.801 43.996ZM608.919 44.032C608.919 43.348 608.775 42.754 608.487 42.25C608.211 41.746 607.845 41.362 607.389 41.098C606.933 40.834 606.441 40.702 605.913 40.702C605.385 40.702 604.893 40.834 604.437 41.098C603.981 41.35 603.609 41.728 603.321 42.232C603.045 42.724 602.907 43.312 602.907 43.996C602.907 44.68 603.045 45.28 603.321 45.796C603.609 46.312 603.981 46.708 604.437 46.984C604.905 47.248 605.397 47.38 605.913 47.38C606.441 47.38 606.933 47.248 607.389 46.984C607.845 46.72 608.211 46.336 608.487 45.832C608.775 45.316 608.919 44.716 608.919 44.032ZM614.728 37.768C614.356 37.768 614.044 37.642 613.792 37.39C613.54 37.138 613.414 36.826 613.414 36.454C613.414 36.082 613.54 35.77 613.792 35.518C614.044 35.266 614.356 35.14 614.728 35.14C615.088 35.14 615.394 35.266 615.646 35.518C615.898 35.77 616.024 36.082 616.024 36.454C616.024 36.826 615.898 37.138 615.646 37.39C615.394 37.642 615.088 37.768 614.728 37.768ZM615.736 39.082V49H613.684V39.082H615.736ZM623.434 38.92C624.214 38.92 624.91 39.082 625.522 39.406C626.146 39.73 626.632 40.21 626.98 40.846C627.328 41.482 627.502 42.25 627.502 43.15V49H625.468V43.456C625.468 42.568 625.246 41.89 624.802 41.422C624.358 40.942 623.752 40.702 622.984 40.702C622.216 40.702 621.604 40.942 621.148 41.422C620.704 41.89 620.482 42.568 620.482 43.456V49H618.43V39.082H620.482V40.216C620.818 39.808 621.244 39.49 621.76 39.262C622.288 39.034 622.846 38.92 623.434 38.92ZM634.116 38.92C634.884 38.92 635.562 39.076 636.15 39.388C636.75 39.688 637.218 40.066 637.554 40.522V39.082H639.624V49.162C639.624 50.074 639.432 50.884 639.048 51.592C638.664 52.312 638.106 52.876 637.374 53.284C636.654 53.692 635.79 53.896 634.782 53.896C633.438 53.896 632.322 53.578 631.434 52.942C630.546 52.318 630.042 51.466 629.922 50.386H631.956C632.112 50.902 632.442 51.316 632.946 51.628C633.462 51.952 634.074 52.114 634.782 52.114C635.61 52.114 636.276 51.862 636.78 51.358C637.296 50.854 637.554 50.122 637.554 49.162V47.506C637.206 47.974 636.732 48.37 636.132 48.694C635.544 49.006 634.872 49.162 634.116 49.162C633.252 49.162 632.46 48.946 631.74 48.514C631.032 48.07 630.468 47.458 630.048 46.678C629.64 45.886 629.436 44.992 629.436 43.996C629.436 43 629.64 42.118 630.048 41.35C630.468 40.582 631.032 39.988 631.74 39.568C632.46 39.136 633.252 38.92 634.116 38.92ZM637.554 44.032C637.554 43.348 637.41 42.754 637.122 42.25C636.846 41.746 636.48 41.362 636.024 41.098C635.568 40.834 635.076 40.702 634.548 40.702C634.02 40.702 633.528 40.834 633.072 41.098C632.616 41.35 632.244 41.728 631.956 42.232C631.68 42.724 631.542 43.312 631.542 43.996C631.542 44.68 631.68 45.28 631.956 45.796C632.244 46.312 632.616 46.708 633.072 46.984C633.54 47.248 634.032 47.38 634.548 47.38C635.076 47.38 635.568 47.248 636.024 46.984C636.48 46.72 636.846 46.336 637.122 45.832C637.41 45.316 637.554 44.716 637.554 44.032Z" fill="#282938"/>
<path opacity="0.7" d="M699.436 36.49C700.768 36.49 701.932 36.748 702.928 37.264C703.936 37.768 704.71 38.5 705.25 39.46C705.802 40.408 706.078 41.518 706.078 42.79C706.078 44.062 705.802 45.166 705.25 46.102C704.71 47.038 703.936 47.758 702.928 48.262C701.932 48.754 700.768 49 699.436 49H695.35V36.49H699.436ZM699.436 47.326C700.9 47.326 702.022 46.93 702.802 46.138C703.582 45.346 703.972 44.23 703.972 42.79C703.972 41.338 703.582 40.204 702.802 39.388C702.022 38.572 700.9 38.164 699.436 38.164H697.402V47.326H699.436ZM717.202 43.798C717.202 44.17 717.178 44.506 717.13 44.806H709.552C709.612 45.598 709.906 46.234 710.434 46.714C710.962 47.194 711.61 47.434 712.378 47.434C713.482 47.434 714.262 46.972 714.718 46.048H716.932C716.632 46.96 716.086 47.71 715.294 48.298C714.514 48.874 713.542 49.162 712.378 49.162C711.43 49.162 710.578 48.952 709.822 48.532C709.078 48.1 708.49 47.5 708.058 46.732C707.638 45.952 707.428 45.052 707.428 44.032C707.428 43.012 707.632 42.118 708.04 41.35C708.46 40.57 709.042 39.97 709.786 39.55C710.542 39.13 711.406 38.92 712.378 38.92C713.314 38.92 714.148 39.124 714.88 39.532C715.612 39.94 716.182 40.516 716.59 41.26C716.998 41.992 717.202 42.838 717.202 43.798ZM715.06 43.15C715.048 42.394 714.778 41.788 714.25 41.332C713.722 40.876 713.068 40.648 712.288 40.648C711.58 40.648 710.974 40.876 710.47 41.332C709.966 41.776 709.666 42.382 709.57 43.15H715.06ZM723.055 47.164L725.863 39.082H728.041L724.261 49H721.813L718.051 39.082H720.247L723.055 47.164ZM738.682 43.798C738.682 44.17 738.658 44.506 738.61 44.806H731.032C731.092 45.598 731.386 46.234 731.914 46.714C732.442 47.194 733.09 47.434 733.858 47.434C734.962 47.434 735.742 46.972 736.198 46.048H738.412C738.112 46.96 737.566 47.71 736.774 48.298C735.994 48.874 735.022 49.162 733.858 49.162C732.91 49.162 732.058 48.952 731.302 48.532C730.558 48.1 729.97 47.5 729.538 46.732C729.118 45.952 728.908 45.052 728.908 44.032C728.908 43.012 729.112 42.118 729.52 41.35C729.94 40.57 730.522 39.97 731.266 39.55C732.022 39.13 732.886 38.92 733.858 38.92C734.794 38.92 735.628 39.124 736.36 39.532C737.092 39.94 737.662 40.516 738.07 41.26C738.478 41.992 738.682 42.838 738.682 43.798ZM736.54 43.15C736.528 42.394 736.258 41.788 735.73 41.332C735.202 40.876 734.548 40.648 733.768 40.648C733.06 40.648 732.454 40.876 731.95 41.332C731.446 41.776 731.146 42.382 731.05 43.15H736.54ZM742.754 35.68V49H740.702V35.68H742.754ZM749.75 49.162C748.814 49.162 747.968 48.952 747.212 48.532C746.456 48.1 745.862 47.5 745.43 46.732C744.998 45.952 744.782 45.052 744.782 44.032C744.782 43.024 745.004 42.13 745.448 41.35C745.892 40.57 746.498 39.97 747.266 39.55C748.034 39.13 748.892 38.92 749.84 38.92C750.788 38.92 751.646 39.13 752.414 39.55C753.182 39.97 753.788 40.57 754.232 41.35C754.676 42.13 754.898 43.024 754.898 44.032C754.898 45.04 754.67 45.934 754.214 46.714C753.758 47.494 753.134 48.1 752.342 48.532C751.562 48.952 750.698 49.162 749.75 49.162ZM749.75 47.38C750.278 47.38 750.77 47.254 751.226 47.002C751.694 46.75 752.072 46.372 752.36 45.868C752.648 45.364 752.792 44.752 752.792 44.032C752.792 43.312 752.654 42.706 752.378 42.214C752.102 41.71 751.736 41.332 751.28 41.08C750.824 40.828 750.332 40.702 749.804 40.702C749.276 40.702 748.784 40.828 748.328 41.08C747.884 41.332 747.53 41.71 747.266 42.214C747.002 42.706 746.87 43.312 746.87 44.032C746.87 45.1 747.14 45.928 747.68 46.516C748.232 47.092 748.922 47.38 749.75 47.38ZM758.978 40.54C759.326 40.084 759.8 39.7 760.4 39.388C761 39.076 761.678 38.92 762.434 38.92C763.298 38.92 764.084 39.136 764.792 39.568C765.512 39.988 766.076 40.582 766.484 41.35C766.892 42.118 767.096 43 767.096 43.996C767.096 44.992 766.892 45.886 766.484 46.678C766.076 47.458 765.512 48.07 764.792 48.514C764.084 48.946 763.298 49.162 762.434 49.162C761.678 49.162 761.006 49.012 760.418 48.712C759.83 48.4 759.35 48.016 758.978 47.56V53.716H756.926V39.082H758.978V40.54ZM765.008 43.996C765.008 43.312 764.864 42.724 764.576 42.232C764.3 41.728 763.928 41.35 763.46 41.098C763.004 40.834 762.512 40.702 761.984 40.702C761.468 40.702 760.976 40.834 760.508 41.098C760.052 41.362 759.68 41.746 759.392 42.25C759.116 42.754 758.978 43.348 758.978 44.032C758.978 44.716 759.116 45.316 759.392 45.832C759.68 46.336 760.052 46.72 760.508 46.984C760.976 47.248 761.468 47.38 761.984 47.38C762.512 47.38 763.004 47.248 763.46 46.984C763.928 46.708 764.3 46.312 764.576 45.796C764.864 45.28 765.008 44.68 765.008 43.996ZM781.131 38.92C781.911 38.92 782.607 39.082 783.219 39.406C783.843 39.73 784.329 40.21 784.677 40.846C785.037 41.482 785.217 42.25 785.217 43.15V49H783.183V43.456C783.183 42.568 782.961 41.89 782.517 41.422C782.073 40.942 781.467 40.702 780.699 40.702C779.931 40.702 779.319 40.942 778.863 41.422C778.419 41.89 778.197 42.568 778.197 43.456V49H776.163V43.456C776.163 42.568 775.941 41.89 775.497 41.422C775.053 40.942 774.447 40.702 773.679 40.702C772.911 40.702 772.299 40.942 771.843 41.422C771.399 41.89 771.177 42.568 771.177 43.456V49H769.125V39.082H771.177V40.216C771.513 39.808 771.939 39.49 772.455 39.262C772.971 39.034 773.523 38.92 774.111 38.92C774.903 38.92 775.611 39.088 776.235 39.424C776.859 39.76 777.339 40.246 777.675 40.882C777.975 40.282 778.443 39.808 779.079 39.46C779.715 39.1 780.399 38.92 781.131 38.92ZM796.919 43.798C796.919 44.17 796.895 44.506 796.847 44.806H789.269C789.329 45.598 789.623 46.234 790.151 46.714C790.679 47.194 791.327 47.434 792.095 47.434C793.199 47.434 793.979 46.972 794.435 46.048H796.649C796.349 46.96 795.803 47.71 795.011 48.298C794.231 48.874 793.259 49.162 792.095 49.162C791.147 49.162 790.295 48.952 789.539 48.532C788.795 48.1 788.207 47.5 787.775 46.732C787.355 45.952 787.145 45.052 787.145 44.032C787.145 43.012 787.349 42.118 787.757 41.35C788.177 40.57 788.759 39.97 789.503 39.55C790.259 39.13 791.123 38.92 792.095 38.92C793.031 38.92 793.865 39.124 794.597 39.532C795.329 39.94 795.899 40.516 796.307 41.26C796.715 41.992 796.919 42.838 796.919 43.798ZM794.777 43.15C794.765 42.394 794.495 41.788 793.967 41.332C793.439 40.876 792.785 40.648 792.005 40.648C791.297 40.648 790.691 40.876 790.187 41.332C789.683 41.776 789.383 42.382 789.287 43.15H794.777ZM803.942 38.92C804.722 38.92 805.418 39.082 806.03 39.406C806.654 39.73 807.14 40.21 807.488 40.846C807.836 41.482 808.01 42.25 808.01 43.15V49H805.976V43.456C805.976 42.568 805.754 41.89 805.31 41.422C804.866 40.942 804.26 40.702 803.492 40.702C802.724 40.702 802.112 40.942 801.656 41.422C801.212 41.89 800.99 42.568 800.99 43.456V49H798.938V39.082H800.99V40.216C801.326 39.808 801.752 39.49 802.268 39.262C802.796 39.034 803.354 38.92 803.942 38.92ZM813.021 40.756V46.246C813.021 46.618 813.105 46.888 813.273 47.056C813.453 47.212 813.753 47.29 814.173 47.29H815.433V49H813.813C812.889 49 812.181 48.784 811.689 48.352C811.197 47.92 810.951 47.218 810.951 46.246V40.756H809.781V39.082H810.951V36.616H813.021V39.082H815.433V40.756H813.021Z" fill="#282938"/>
<path opacity="0.7" d="M883.67 39.082L880.592 49H878.432L876.434 41.674L874.436 49H872.276L869.18 39.082H871.268L873.338 47.056L875.444 39.082H877.586L879.602 47.02L881.654 39.082H883.67ZM894.294 43.798C894.294 44.17 894.27 44.506 894.222 44.806H886.644C886.704 45.598 886.998 46.234 887.526 46.714C888.054 47.194 888.702 47.434 889.47 47.434C890.574 47.434 891.354 46.972 891.81 46.048H894.024C893.724 46.96 893.178 47.71 892.386 48.298C891.606 48.874 890.634 49.162 889.47 49.162C888.522 49.162 887.67 48.952 886.914 48.532C886.17 48.1 885.582 47.5 885.15 46.732C884.73 45.952 884.52 45.052 884.52 44.032C884.52 43.012 884.724 42.118 885.132 41.35C885.552 40.57 886.134 39.97 886.878 39.55C887.634 39.13 888.498 38.92 889.47 38.92C890.406 38.92 891.24 39.124 891.972 39.532C892.704 39.94 893.274 40.516 893.682 41.26C894.09 41.992 894.294 42.838 894.294 43.798ZM892.152 43.15C892.14 42.394 891.87 41.788 891.342 41.332C890.814 40.876 890.16 40.648 889.38 40.648C888.672 40.648 888.066 40.876 887.562 41.332C887.058 41.776 886.758 42.382 886.662 43.15H892.152ZM898.365 40.558C898.713 40.078 899.187 39.688 899.787 39.388C900.399 39.076 901.077 38.92 901.821 38.92C902.697 38.92 903.489 39.13 904.197 39.55C904.905 39.97 905.463 40.57 905.871 41.35C906.279 42.118 906.483 43 906.483 43.996C906.483 44.992 906.279 45.886 905.871 46.678C905.463 47.458 904.899 48.07 904.179 48.514C903.471 48.946 902.685 49.162 901.821 49.162C901.053 49.162 900.369 49.012 899.769 48.712C899.181 48.412 898.713 48.028 898.365 47.56V49H896.313V35.68H898.365V40.558ZM904.395 43.996C904.395 43.312 904.251 42.724 903.963 42.232C903.687 41.728 903.315 41.35 902.847 41.098C902.391 40.834 901.899 40.702 901.371 40.702C900.855 40.702 900.363 40.834 899.895 41.098C899.439 41.362 899.067 41.746 898.779 42.25C898.503 42.754 898.365 43.348 898.365 44.032C898.365 44.716 898.503 45.316 898.779 45.832C899.067 46.336 899.439 46.72 899.895 46.984C900.363 47.248 900.855 47.38 901.371 47.38C901.899 47.38 902.391 47.248 902.847 46.984C903.315 46.708 903.687 46.312 903.963 45.796C904.251 45.28 904.395 44.68 904.395 43.996ZM912.67 40.756H910.834V49H908.764V40.756H907.594V39.082H908.764V38.38C908.764 37.24 909.064 36.412 909.664 35.896C910.276 35.368 911.23 35.104 912.526 35.104V36.814C911.902 36.814 911.464 36.934 911.212 37.174C910.96 37.402 910.834 37.804 910.834 38.38V39.082H912.67V40.756ZM916.541 35.68V49H914.489V35.68H916.541ZM923.537 49.162C922.601 49.162 921.755 48.952 920.999 48.532C920.243 48.1 919.649 47.5 919.217 46.732C918.785 45.952 918.569 45.052 918.569 44.032C918.569 43.024 918.791 42.13 919.235 41.35C919.679 40.57 920.285 39.97 921.053 39.55C921.821 39.13 922.679 38.92 923.627 38.92C924.575 38.92 925.433 39.13 926.201 39.55C926.969 39.97 927.575 40.57 928.019 41.35C928.463 42.13 928.685 43.024 928.685 44.032C928.685 45.04 928.457 45.934 928.001 46.714C927.545 47.494 926.921 48.1 926.129 48.532C925.349 48.952 924.485 49.162 923.537 49.162ZM923.537 47.38C924.065 47.38 924.557 47.254 925.013 47.002C925.481 46.75 925.859 46.372 926.147 45.868C926.435 45.364 926.579 44.752 926.579 44.032C926.579 43.312 926.441 42.706 926.165 42.214C925.889 41.71 925.523 41.332 925.067 41.08C924.611 40.828 924.119 40.702 923.591 40.702C923.063 40.702 922.571 40.828 922.115 41.08C921.671 41.332 921.317 41.71 921.053 42.214C920.789 42.706 920.657 43.312 920.657 44.032C920.657 45.1 920.927 45.928 921.467 46.516C922.019 47.092 922.709 47.38 923.537 47.38ZM944.033 39.082L940.955 49H938.795L936.797 41.674L934.799 49H932.639L929.543 39.082H931.631L933.701 47.056L935.807 39.082H937.949L939.965 47.02L942.017 39.082H944.033Z" fill="#282938"/>
<line opacity="0.2" y1="0.5" x2="952" y2="0.5" stroke="#282938"/>
<line opacity="0.2" y1="84.5" x2="952" y2="84.5" stroke="#282938"/>
</svg>
